G04*
G04 #@! TF.GenerationSoftware,Altium Limited,Altium Designer,25.1.2 (22)*
G04*
G04 Layer_Color=2752767*
%FSLAX25Y25*%
%MOIN*%
G70*
G04*
G04 #@! TF.SameCoordinates,7C62D4D7-8F8D-48FC-A2E0-5C7692351293*
G04*
G04*
G04 #@! TF.FilePolarity,Positive*
G04*
G01*
G75*
%ADD16C,0.00500*%
%ADD85C,0.00667*%
D16*
X66000Y79000D02*
Y83000D01*
X70000D01*
Y79000D01*
X66000D01*
X76000D02*
Y83000D01*
X80000D01*
Y79000D01*
X76000D01*
X86000D02*
Y83000D01*
X90000D01*
Y79000D01*
X86000D01*
X96000D02*
Y83000D01*
X100000D01*
Y79000D01*
X96000D01*
X106000D02*
Y83000D01*
X110000D01*
Y79000D01*
X106000D01*
X116000D02*
Y83000D01*
X120000D01*
Y79000D01*
X116000D01*
X126000D02*
Y83000D01*
X130000D01*
Y79000D01*
X126000D01*
X136000D02*
Y83000D01*
X140000D01*
Y79000D01*
X136000D01*
X66000Y89000D02*
Y93000D01*
X70000D01*
Y89000D01*
X66000D01*
X76000D02*
Y93000D01*
X80000D01*
Y89000D01*
X76000D01*
X86000D02*
Y93000D01*
X90000D01*
Y89000D01*
X86000D01*
X96000D02*
Y93000D01*
X100000D01*
Y89000D01*
X96000D01*
X106000D02*
Y93000D01*
X110000D01*
Y89000D01*
X106000D01*
X116000D02*
Y93000D01*
X120000D01*
Y89000D01*
X116000D01*
X126000D02*
Y93000D01*
X130000D01*
Y89000D01*
X126000D01*
X136000D02*
Y93000D01*
X140000D01*
Y89000D01*
X136000D01*
X246000D02*
Y93000D01*
X250000D01*
Y89000D01*
X246000D01*
X296000D02*
Y93000D01*
X300000D01*
Y89000D01*
X296000D01*
X286000Y79000D02*
Y83000D01*
X290000D01*
Y79000D01*
X286000D01*
X296000D02*
Y83000D01*
X300000D01*
Y79000D01*
X296000D01*
X286000Y89000D02*
Y93000D01*
X290000D01*
Y89000D01*
X286000D01*
X276000D02*
Y93000D01*
X280000D01*
Y89000D01*
X276000D01*
X266000D02*
Y93000D01*
X270000D01*
Y89000D01*
X266000D01*
X256000D02*
Y93000D01*
X260000D01*
Y89000D01*
X256000D01*
X236000D02*
Y93000D01*
X240000D01*
Y89000D01*
X236000D01*
X226000D02*
Y93000D01*
X230000D01*
Y89000D01*
X226000D01*
X216000D02*
Y93000D01*
X220000D01*
Y89000D01*
X216000D01*
X206000D02*
Y93000D01*
X210000D01*
Y89000D01*
X206000D01*
X196000D02*
Y93000D01*
X200000D01*
Y89000D01*
X196000D01*
X186000D02*
Y93000D01*
X190000D01*
Y89000D01*
X186000D01*
X176000D02*
Y93000D01*
X180000D01*
Y89000D01*
X176000D01*
X166000D02*
Y93000D01*
X170000D01*
Y89000D01*
X166000D01*
X156000D02*
Y93000D01*
X160000D01*
Y89000D01*
X156000D01*
X276000Y79000D02*
Y83000D01*
X280000D01*
Y79000D01*
X276000D01*
X266000D02*
Y83000D01*
X270000D01*
Y79000D01*
X266000D01*
X256000D02*
Y83000D01*
X260000D01*
Y79000D01*
X256000D01*
X246000D02*
Y83000D01*
X250000D01*
Y79000D01*
X246000D01*
X236000D02*
Y83000D01*
X240000D01*
Y79000D01*
X236000D01*
X226000D02*
Y83000D01*
X230000D01*
Y79000D01*
X226000D01*
X216000D02*
Y83000D01*
X220000D01*
Y79000D01*
X216000D01*
X206000D02*
Y83000D01*
X210000D01*
Y79000D01*
X206000D01*
X196000D02*
Y83000D01*
X200000D01*
Y79000D01*
X196000D01*
X186000D02*
Y83000D01*
X190000D01*
Y79000D01*
X186000D01*
X176000D02*
Y83000D01*
X180000D01*
Y79000D01*
X176000D01*
X166000D02*
Y83000D01*
X170000D01*
Y79000D01*
X166000D01*
X156000D02*
Y83000D01*
X160000D01*
Y79000D01*
X156000D01*
X55500Y128000D02*
X56500Y129000D01*
X57500D01*
X56500Y130000D01*
X57500Y131000D01*
X56500D01*
X55500Y132000D01*
X54500Y131000D01*
X53500D01*
X54500Y130000D01*
X53500Y129000D01*
X54500D01*
X55500Y128000D01*
X15500D02*
X16500Y129000D01*
X17500D01*
X16500Y130000D01*
X17500Y131000D01*
X16500D01*
X15500Y132000D01*
X14500Y131000D01*
X13500D01*
X14500Y130000D01*
X13500Y129000D01*
X14500D01*
X15500Y128000D01*
X55500Y168000D02*
X56500Y169000D01*
X57500D01*
X56500Y170000D01*
X57500Y171000D01*
X56500D01*
X55500Y172000D01*
X54500Y171000D01*
X53500D01*
X54500Y170000D01*
X53500Y169000D01*
X54500D01*
X55500Y168000D01*
X15500D02*
X16500Y169000D01*
X17500D01*
X16500Y170000D01*
X17500Y171000D01*
X16500D01*
X15500Y172000D01*
X14500Y171000D01*
X13500D01*
X14500Y170000D01*
X13500Y169000D01*
X14500D01*
X15500Y168000D01*
X120000Y269000D02*
Y273000D01*
X124000D01*
Y269000D01*
X120000D01*
X110000D02*
Y273000D01*
X114000D01*
Y269000D01*
X110000D01*
X100000D02*
Y273000D01*
X104000D01*
Y269000D01*
X100000D01*
X90000D02*
Y273000D01*
X94000D01*
Y269000D01*
X90000D01*
X80000D02*
Y273000D01*
X84000D01*
Y269000D01*
X80000D01*
X70000D02*
Y273000D01*
X74000D01*
Y269000D01*
X70000D01*
X60000D02*
Y273000D01*
X64000D01*
Y269000D01*
X60000D01*
X50000D02*
Y273000D01*
X54000D01*
Y269000D01*
X50000D01*
X40000D02*
Y273000D01*
X44000D01*
Y269000D01*
X40000D01*
X120000Y259000D02*
Y263000D01*
X124000D01*
Y259000D01*
X120000D01*
X110000D02*
Y263000D01*
X114000D01*
Y259000D01*
X110000D01*
X100000D02*
Y263000D01*
X104000D01*
Y259000D01*
X100000D01*
X90000D02*
Y263000D01*
X94000D01*
Y259000D01*
X90000D01*
X80000D02*
Y263000D01*
X84000D01*
Y259000D01*
X80000D01*
X70000D02*
Y263000D01*
X74000D01*
Y259000D01*
X70000D01*
X60000D02*
Y263000D01*
X64000D01*
Y259000D01*
X60000D01*
X50000D02*
Y263000D01*
X54000D01*
Y259000D01*
X50000D01*
X40000D02*
Y263000D01*
X44000D01*
Y259000D01*
X40000D01*
X30000D02*
Y263000D01*
X34000D01*
Y259000D01*
X30000D01*
Y269000D02*
Y273000D01*
X34000D01*
Y269000D01*
X30000D01*
X10000Y241343D02*
X8000Y245343D01*
X12000D01*
X10000Y241343D01*
Y231500D02*
X8000Y235500D01*
X12000D01*
X10000Y231500D01*
Y221657D02*
X8000Y225657D01*
X12000D01*
X10000Y221657D01*
Y211815D02*
X8000Y215815D01*
X12000D01*
X10000Y211815D01*
X296000Y269000D02*
Y273000D01*
X300000D01*
Y269000D01*
X296000D01*
X286000D02*
Y273000D01*
X290000D01*
Y269000D01*
X286000D01*
X276000D02*
Y273000D01*
X280000D01*
Y269000D01*
X276000D01*
X266000D02*
Y273000D01*
X270000D01*
Y269000D01*
X266000D01*
X256000D02*
Y273000D01*
X260000D01*
Y269000D01*
X256000D01*
X246000D02*
Y273000D01*
X250000D01*
Y269000D01*
X246000D01*
X236000D02*
Y273000D01*
X240000D01*
Y269000D01*
X236000D01*
X226000D02*
Y273000D01*
X230000D01*
Y269000D01*
X226000D01*
X216000D02*
Y273000D01*
X220000D01*
Y269000D01*
X216000D01*
X206000D02*
Y273000D01*
X210000D01*
Y269000D01*
X206000D01*
X196000D02*
Y273000D01*
X200000D01*
Y269000D01*
X196000D01*
X186000D02*
Y273000D01*
X190000D01*
Y269000D01*
X186000D01*
X176000D02*
Y273000D01*
X180000D01*
Y269000D01*
X176000D01*
X166000D02*
Y273000D01*
X170000D01*
Y269000D01*
X166000D01*
X156000D02*
Y273000D01*
X160000D01*
Y269000D01*
X156000D01*
X146000D02*
Y273000D01*
X150000D01*
Y269000D01*
X146000D01*
X136000D02*
Y273000D01*
X140000D01*
Y269000D01*
X136000D01*
X296000Y259000D02*
Y263000D01*
X300000D01*
Y259000D01*
X296000D01*
X286000D02*
Y263000D01*
X290000D01*
Y259000D01*
X286000D01*
X276000D02*
Y263000D01*
X280000D01*
Y259000D01*
X276000D01*
X266000D02*
Y263000D01*
X270000D01*
Y259000D01*
X266000D01*
X256000D02*
Y263000D01*
X260000D01*
Y259000D01*
X256000D01*
X246000D02*
Y263000D01*
X250000D01*
Y259000D01*
X246000D01*
X236000D02*
Y263000D01*
X240000D01*
Y259000D01*
X236000D01*
X226000D02*
Y263000D01*
X230000D01*
Y259000D01*
X226000D01*
X216000D02*
Y263000D01*
X220000D01*
Y259000D01*
X216000D01*
X206000D02*
Y263000D01*
X210000D01*
Y259000D01*
X206000D01*
X196000D02*
Y263000D01*
X200000D01*
Y259000D01*
X196000D01*
X186000D02*
Y263000D01*
X190000D01*
Y259000D01*
X186000D01*
X176000D02*
Y263000D01*
X180000D01*
Y259000D01*
X176000D01*
X166000D02*
Y263000D01*
X170000D01*
Y259000D01*
X166000D01*
X156000D02*
Y263000D01*
X160000D01*
Y259000D01*
X156000D01*
X146000D02*
Y263000D01*
X150000D01*
Y259000D01*
X146000D01*
X136000D02*
Y263000D01*
X140000D01*
Y259000D01*
X136000D01*
X55500Y59000D02*
Y63000D01*
X59500D01*
Y59000D01*
X55500D01*
X45500D02*
Y63000D01*
X49500D01*
Y59000D01*
X45500D01*
X143626Y10000D02*
X144626Y12000D01*
X143626Y14000D01*
X145626Y13000D01*
X147626Y14000D01*
X146626Y12000D01*
X147626Y10000D01*
X145626Y11000D01*
X143626Y10000D01*
X151500D02*
X152500Y12000D01*
X151500Y14000D01*
X153500Y13000D01*
X155500Y14000D01*
X154500Y12000D01*
X155500Y10000D01*
X153500Y11000D01*
X151500Y10000D01*
X268626Y10138D02*
X269626Y12138D01*
X268626Y14138D01*
X270626Y13138D01*
X272626Y14138D01*
X271626Y12138D01*
X272626Y10138D01*
X270626Y11138D01*
X268626Y10138D01*
X276500D02*
X277500Y12138D01*
X276500Y14138D01*
X278500Y13138D01*
X280500Y14138D01*
X279500Y12138D01*
X280500Y10138D01*
X278500Y11138D01*
X276500Y10138D01*
X284374D02*
X285374Y12138D01*
X284374Y14138D01*
X286374Y13138D01*
X288374Y14138D01*
X287374Y12138D01*
X288374Y10138D01*
X286374Y11138D01*
X284374Y10138D01*
X373500Y39500D02*
Y38500D01*
X375500D01*
Y39500D01*
X376500D01*
Y41500D01*
X375500D01*
Y42500D01*
X373500D01*
Y41500D01*
X372500D01*
Y39500D01*
X373500D01*
X348000Y52000D02*
Y51000D01*
X350000D01*
Y52000D01*
X351000D01*
Y54000D01*
X350000D01*
Y55000D01*
X348000D01*
Y54000D01*
X347000D01*
Y52000D01*
X348000D01*
X175943Y125000D02*
Y124000D01*
X177943D01*
Y125000D01*
X178943D01*
Y127000D01*
X177943D01*
Y128000D01*
X175943D01*
Y127000D01*
X174943D01*
Y125000D01*
X175943D01*
X157000Y184500D02*
Y183500D01*
X159000D01*
Y184500D01*
X160000D01*
Y186500D01*
X159000D01*
Y187500D01*
X157000D01*
Y186500D01*
X156000D01*
Y184500D01*
X157000D01*
X149500Y192500D02*
Y191500D01*
X151500D01*
Y192500D01*
X152500D01*
Y194500D01*
X151500D01*
Y195500D01*
X149500D01*
Y194500D01*
X148500D01*
Y192500D01*
X149500D01*
X156000Y103000D02*
Y102000D01*
X158000D01*
Y103000D01*
X159000D01*
Y105000D01*
X158000D01*
Y106000D01*
X156000D01*
Y105000D01*
X155000D01*
Y103000D01*
X156000D01*
Y110000D02*
Y109000D01*
X158000D01*
Y110000D01*
X159000D01*
Y112000D01*
X158000D01*
Y113000D01*
X156000D01*
Y112000D01*
X155000D01*
Y110000D01*
X156000D01*
X133500Y148000D02*
Y147000D01*
X135500D01*
Y148000D01*
X136500D01*
Y150000D01*
X135500D01*
Y151000D01*
X133500D01*
Y150000D01*
X132500D01*
Y148000D01*
X133500D01*
X295500Y130500D02*
Y129500D01*
X297500D01*
Y130500D01*
X298500D01*
Y132500D01*
X297500D01*
Y133500D01*
X295500D01*
Y132500D01*
X294500D01*
Y130500D01*
X295500D01*
X276500Y158500D02*
Y157500D01*
X278500D01*
Y158500D01*
X279500D01*
Y160500D01*
X278500D01*
Y161500D01*
X276500D01*
Y160500D01*
X275500D01*
Y158500D01*
X276500D01*
X51000Y236000D02*
Y235000D01*
X53000D01*
Y236000D01*
X54000D01*
Y238000D01*
X53000D01*
Y239000D01*
X51000D01*
Y238000D01*
X50000D01*
Y236000D01*
X51000D01*
X154000Y160500D02*
Y159500D01*
X156000D01*
Y160500D01*
X157000D01*
Y162500D01*
X156000D01*
Y163500D01*
X154000D01*
Y162500D01*
X153000D01*
Y160500D01*
X154000D01*
X147500Y148000D02*
Y147000D01*
X149500D01*
Y148000D01*
X150500D01*
Y150000D01*
X149500D01*
Y151000D01*
X147500D01*
Y150000D01*
X146500D01*
Y148000D01*
X147500D01*
X165000Y185000D02*
Y184000D01*
X167000D01*
Y185000D01*
X168000D01*
Y187000D01*
X167000D01*
Y188000D01*
X165000D01*
Y187000D01*
X164000D01*
Y185000D01*
X165000D01*
X152500Y67000D02*
Y66000D01*
X154500D01*
Y67000D01*
X155500D01*
Y69000D01*
X154500D01*
Y70000D01*
X152500D01*
Y69000D01*
X151500D01*
Y67000D01*
X152500D01*
X159000Y28000D02*
Y27000D01*
X161000D01*
Y28000D01*
X162000D01*
Y30000D01*
X161000D01*
Y31000D01*
X159000D01*
Y30000D01*
X158000D01*
Y28000D01*
X159000D01*
X146500D02*
Y27000D01*
X148500D01*
Y28000D01*
X149500D01*
Y30000D01*
X148500D01*
Y31000D01*
X146500D01*
Y30000D01*
X145500D01*
Y28000D01*
X146500D01*
X364000Y88000D02*
Y87000D01*
X366000D01*
Y88000D01*
X367000D01*
Y90000D01*
X366000D01*
Y91000D01*
X364000D01*
Y90000D01*
X363000D01*
Y88000D01*
X364000D01*
X373000Y24500D02*
Y23500D01*
X375000D01*
Y24500D01*
X376000D01*
Y26500D01*
X375000D01*
Y27500D01*
X373000D01*
Y26500D01*
X372000D01*
Y24500D01*
X373000D01*
X388000D02*
Y23500D01*
X390000D01*
Y24500D01*
X391000D01*
Y26500D01*
X390000D01*
Y27500D01*
X388000D01*
Y26500D01*
X387000D01*
Y24500D01*
X388000D01*
X380500D02*
Y23500D01*
X382500D01*
Y24500D01*
X383500D01*
Y26500D01*
X382500D01*
Y27500D01*
X380500D01*
Y26500D01*
X379500D01*
Y24500D01*
X380500D01*
X388000Y5500D02*
Y4500D01*
X390000D01*
Y5500D01*
X391000D01*
Y7500D01*
X390000D01*
Y8500D01*
X388000D01*
Y7500D01*
X387000D01*
Y5500D01*
X388000D01*
X380500D02*
Y4500D01*
X382500D01*
Y5500D01*
X383500D01*
Y7500D01*
X382500D01*
Y8500D01*
X380500D01*
Y7500D01*
X379500D01*
Y5500D01*
X380500D01*
X373000D02*
Y4500D01*
X375000D01*
Y5500D01*
X376000D01*
Y7500D01*
X375000D01*
Y8500D01*
X373000D01*
Y7500D01*
X372000D01*
Y5500D01*
X373000D01*
X388000Y12000D02*
Y11000D01*
X390000D01*
Y12000D01*
X391000D01*
Y14000D01*
X390000D01*
Y15000D01*
X388000D01*
Y14000D01*
X387000D01*
Y12000D01*
X388000D01*
X380500D02*
Y11000D01*
X382500D01*
Y12000D01*
X383500D01*
Y14000D01*
X382500D01*
Y15000D01*
X380500D01*
Y14000D01*
X379500D01*
Y12000D01*
X380500D01*
X373000D02*
Y11000D01*
X375000D01*
Y12000D01*
X376000D01*
Y14000D01*
X375000D01*
Y15000D01*
X373000D01*
Y14000D01*
X372000D01*
Y12000D01*
X373000D01*
X388000Y18000D02*
Y17000D01*
X390000D01*
Y18000D01*
X391000D01*
Y20000D01*
X390000D01*
Y21000D01*
X388000D01*
Y20000D01*
X387000D01*
Y18000D01*
X388000D01*
X380500D02*
Y17000D01*
X382500D01*
Y18000D01*
X383500D01*
Y20000D01*
X382500D01*
Y21000D01*
X380500D01*
Y20000D01*
X379500D01*
Y18000D01*
X380500D01*
X373000D02*
Y17000D01*
X375000D01*
Y18000D01*
X376000D01*
Y20000D01*
X375000D01*
Y21000D01*
X373000D01*
Y20000D01*
X372000D01*
Y18000D01*
X373000D01*
X352500Y134000D02*
Y133000D01*
X354500D01*
Y134000D01*
X355500D01*
Y136000D01*
X354500D01*
Y137000D01*
X352500D01*
Y136000D01*
X351500D01*
Y134000D01*
X352500D01*
Y140500D02*
Y139500D01*
X354500D01*
Y140500D01*
X355500D01*
Y142500D01*
X354500D01*
Y143500D01*
X352500D01*
Y142500D01*
X351500D01*
Y140500D01*
X352500D01*
X359000Y134000D02*
Y133000D01*
X361000D01*
Y134000D01*
X362000D01*
Y136000D01*
X361000D01*
Y137000D01*
X359000D01*
Y136000D01*
X358000D01*
Y134000D01*
X359000D01*
Y140500D02*
Y139500D01*
X361000D01*
Y140500D01*
X362000D01*
Y142500D01*
X361000D01*
Y143500D01*
X359000D01*
Y142500D01*
X358000D01*
Y140500D01*
X359000D01*
X366000Y134000D02*
Y133000D01*
X368000D01*
Y134000D01*
X369000D01*
Y136000D01*
X368000D01*
Y137000D01*
X366000D01*
Y136000D01*
X365000D01*
Y134000D01*
X366000D01*
Y140500D02*
Y139500D01*
X368000D01*
Y140500D01*
X369000D01*
Y142500D01*
X368000D01*
Y143500D01*
X366000D01*
Y142500D01*
X365000D01*
Y140500D01*
X366000D01*
X330500Y125000D02*
Y124000D01*
X332500D01*
Y125000D01*
X333500D01*
Y127000D01*
X332500D01*
Y128000D01*
X330500D01*
Y127000D01*
X329500D01*
Y125000D01*
X330500D01*
X324000D02*
Y124000D01*
X326000D01*
Y125000D01*
X327000D01*
Y127000D01*
X326000D01*
Y128000D01*
X324000D01*
Y127000D01*
X323000D01*
Y125000D01*
X324000D01*
X320500Y164500D02*
Y163500D01*
X322500D01*
Y164500D01*
X323500D01*
Y166500D01*
X322500D01*
Y167500D01*
X320500D01*
Y166500D01*
X319500D01*
Y164500D01*
X320500D01*
X314500Y167000D02*
Y166000D01*
X316500D01*
Y167000D01*
X317500D01*
Y169000D01*
X316500D01*
Y170000D01*
X314500D01*
Y169000D01*
X313500D01*
Y167000D01*
X314500D01*
X140500Y187500D02*
Y186500D01*
X142500D01*
Y187500D01*
X143500D01*
Y189500D01*
X142500D01*
Y190500D01*
X140500D01*
Y189500D01*
X139500D01*
Y187500D01*
X140500D01*
X110900Y172200D02*
Y171200D01*
X112900D01*
Y172200D01*
X113900D01*
Y174200D01*
X112900D01*
Y175200D01*
X110900D01*
Y174200D01*
X109900D01*
Y172200D01*
X110900D01*
X207600Y125200D02*
Y124200D01*
X209600D01*
Y125200D01*
X210600D01*
Y127200D01*
X209600D01*
Y128200D01*
X207600D01*
Y127200D01*
X206600D01*
Y125200D01*
X207600D01*
X109223Y157623D02*
Y156623D01*
X111223D01*
Y157623D01*
X112223D01*
Y159623D01*
X111223D01*
Y160623D01*
X109223D01*
Y159623D01*
X108223D01*
Y157623D01*
X109223D01*
X118600Y185000D02*
Y184000D01*
X120600D01*
Y185000D01*
X121600D01*
Y187000D01*
X120600D01*
Y188000D01*
X118600D01*
Y187000D01*
X117600D01*
Y185000D01*
X118600D01*
X336500Y156200D02*
Y155200D01*
X338500D01*
Y156200D01*
X339500D01*
Y158200D01*
X338500D01*
Y159200D01*
X336500D01*
Y158200D01*
X335500D01*
Y156200D01*
X336500D01*
X174600Y167300D02*
Y166300D01*
X176600D01*
Y167300D01*
X177600D01*
Y169300D01*
X176600D01*
Y170300D01*
X174600D01*
Y169300D01*
X173600D01*
Y167300D01*
X174600D01*
X208300Y185500D02*
Y184500D01*
X210300D01*
Y185500D01*
X211300D01*
Y187500D01*
X210300D01*
Y188500D01*
X208300D01*
Y187500D01*
X207300D01*
Y185500D01*
X208300D01*
X180300Y161800D02*
Y160800D01*
X182300D01*
Y161800D01*
X183300D01*
Y163800D01*
X182300D01*
Y164800D01*
X180300D01*
Y163800D01*
X179300D01*
Y161800D01*
X180300D01*
X204300Y168400D02*
Y167400D01*
X206300D01*
Y168400D01*
X207300D01*
Y170400D01*
X206300D01*
Y171400D01*
X204300D01*
Y170400D01*
X203300D01*
Y168400D01*
X204300D01*
D85*
X378000Y160000D02*
G03*
X378000Y160000I-2000J0D01*
G01*
Y140000D02*
G03*
X378000Y140000I-2000J0D01*
G01*
M02*
