G04*
G04 #@! TF.GenerationSoftware,Altium Limited,Altium Designer,25.1.2 (22)*
G04*
G04 Layer_Color=8388736*
%FSLAX25Y25*%
%MOIN*%
G70*
G04*
G04 #@! TF.SameCoordinates,7C62D4D7-8F8D-48FC-A2E0-5C7692351293*
G04*
G04*
G04 #@! TF.FilePolarity,Positive*
G04*
G01*
G75*
%ADD10C,0.00394*%
%ADD12C,0.00787*%
D10*
X305421Y44602D02*
X345579D01*
X305421Y4445D02*
Y44602D01*
Y4445D02*
X345579D01*
Y44602D01*
D12*
X179671Y112252D02*
X185183D01*
X179671D02*
Y124221D01*
X185183D01*
Y112252D02*
Y124221D01*
X282978Y115551D02*
X293411D01*
Y109449D02*
Y115551D01*
X282978Y109449D02*
X293411D01*
X282978D02*
Y115551D01*
X89024Y141791D02*
X107724D01*
X89024D02*
Y153209D01*
X107724D01*
Y141791D02*
Y153209D01*
X137161Y4520D02*
Y24205D01*
Y4520D02*
X161965D01*
Y24205D01*
X137161D02*
X161965D01*
X262161Y4657D02*
Y24343D01*
Y4657D02*
X294839D01*
Y24343D01*
X262161D02*
X294839D01*
X306854Y152677D02*
X326146D01*
X306854Y137323D02*
Y152677D01*
Y137323D02*
X326146D01*
Y152677D01*
X143791Y55441D02*
X155209D01*
Y60559D01*
X143791D02*
X155209D01*
X143791Y55441D02*
Y60559D01*
X368827Y96173D02*
Y117827D01*
X347173D02*
X368827D01*
X347173Y96173D02*
Y117827D01*
Y96173D02*
X368827D01*
M02*
