M48
;Layer_Color=9474304
;FILE_FORMAT=2:5
INCH,TZ
;TYPE=PLATED
T01F00S00C0.02800
T02F00S00C0.03150
T03F00S00C0.03543
T04F00S00C0.04331
T05F00S00C0.05000
T06F00S00C0.05984
%
T01
X147500Y29000
X153500Y68000
X148500Y149000
X134500
X157000Y111000
Y104000
X176943Y126000
X208600Y126200
X296500Y131500
X160000Y29000
X349000Y53000
X374500Y40500
X374000Y25500
Y19000
Y13000
Y6500
X381500
Y13000
Y19000
Y25500
X389000
Y19000
Y13000
Y6500
X365000Y89000
X367000Y135000
Y141500
X360000
X353500
Y135000
X360000
X331500Y126000
X325000
X321500Y165500
X315500Y168000
X337500Y157200
X277500Y159500
X205300Y169400
X209300Y186500
X166000Y186000
X158000Y185500
X175600Y168300
X181300Y162800
X155000Y161500
X150500Y193500
X141500Y188500
X119600Y186000
X111900Y173200
X110223Y158623
X52000Y237000
T02
X145626Y12000
X153500
X270626Y12138
X278500
X286374
T03
X10000Y213815
Y223657
Y233500
Y243343
T04
X47500Y61000
X57500
X68000Y81000
X78000
X88000
X98000
X108000
X118000
X128000
X138000
Y91000
X128000
X118000
X108000
X98000
X88000
X78000
X68000
X158000
X168000
X178000
X188000
X198000
X208000
X218000
X228000
X238000
X248000
X258000
X268000
X278000
X288000
X298000
Y81000
X288000
X278000
X268000
X258000
X248000
X238000
X228000
X218000
X208000
X198000
X188000
X178000
X168000
X158000
Y261000
Y271000
X168000
X178000
X188000
X198000
X208000
X218000
X228000
X238000
X248000
X258000
X268000
X278000
X288000
X298000
Y261000
X288000
X278000
X268000
X258000
X248000
X238000
X228000
X218000
X208000
X198000
X188000
X178000
X168000
X148000
Y271000
X138000
Y261000
X122000
Y271000
X112000
X102000
X92000
X82000
X72000
X62000
X52000
X42000
Y261000
X52000
X62000
X72000
X82000
X92000
X102000
X112000
X32000
Y271000
T05
X376000Y140000
Y160000
T06
X15500Y130000
X55500
Y170000
X15500
M30
