G04*
G04 #@! TF.GenerationSoftware,Altium Limited,Altium Designer,25.1.2 (22)*
G04*
G04 Layer_Color=32768*
%FSLAX25Y25*%
%MOIN*%
G70*
G04*
G04 #@! TF.SameCoordinates,7C62D4D7-8F8D-48FC-A2E0-5C7692351293*
G04*
G04*
G04 #@! TF.FilePolarity,Positive*
G04*
G01*
G75*
%ADD10C,0.00394*%
%ADD14C,0.00600*%
%ADD78C,0.00197*%
G36*
X371800Y73624D02*
X377400D01*
Y54424D01*
X371800D01*
Y53274D01*
X354200D01*
Y54424D01*
X348600D01*
Y73624D01*
X354200D01*
Y74774D01*
X371800D01*
Y73624D01*
D02*
G37*
G36*
X358900Y171000D02*
Y129000D01*
X393100D01*
Y171000D01*
X358900D01*
D02*
G37*
D10*
X164640Y115890D02*
X168577D01*
X166609Y113921D02*
Y117858D01*
X88500Y125004D02*
Y128941D01*
X86531Y126972D02*
X90468D01*
X114032Y199000D02*
X117969D01*
X116000Y197032D02*
Y200969D01*
X101532Y199744D02*
X105469D01*
X103500Y197775D02*
Y201713D01*
X89500Y196496D02*
Y200433D01*
X87531Y198465D02*
X91469D01*
X138531Y116000D02*
X142469D01*
X140500Y114032D02*
Y117968D01*
X60500Y222275D02*
Y226213D01*
X58532Y224244D02*
X62469D01*
X281945Y142996D02*
X285882D01*
X283913Y141027D02*
Y144965D01*
X359000Y81032D02*
Y84969D01*
X357031Y83000D02*
X360969D01*
X6957Y107008D02*
Y192992D01*
X80972D01*
Y107008D02*
Y192992D01*
X6957Y107008D02*
X80972D01*
X288500Y158032D02*
Y161969D01*
X286531Y160000D02*
X290469D01*
X287953Y122532D02*
Y126469D01*
X285984Y124500D02*
X289921D01*
X196372Y114020D02*
Y117957D01*
X194404Y115988D02*
X198341D01*
X196500Y184531D02*
Y188469D01*
X194531Y186500D02*
X198468D01*
X186787Y203500D02*
X190724D01*
X188756Y201532D02*
Y205469D01*
X112099Y115988D02*
X116036D01*
X114067Y114020D02*
Y117957D01*
X100031Y117000D02*
X103969D01*
X102000Y115031D02*
Y118969D01*
X175032Y140500D02*
X178969D01*
X177000Y138531D02*
Y142468D01*
X132275Y203500D02*
X136213D01*
X134244Y201531D02*
Y205468D01*
X211833Y114020D02*
Y117957D01*
X209865Y115988D02*
X213802D01*
X126532Y115500D02*
X130469D01*
X128500Y113531D02*
Y117469D01*
X147531Y115500D02*
X151468D01*
X149500Y113531D02*
Y117468D01*
X196000Y171032D02*
Y174969D01*
X194031Y173000D02*
X197968D01*
X94031Y178000D02*
X97969D01*
X96000Y176031D02*
Y179969D01*
X41965Y211531D02*
Y215469D01*
X39996Y213500D02*
X43933D01*
X41965Y227031D02*
Y230969D01*
X39996Y229000D02*
X43933D01*
X41965Y242031D02*
Y245969D01*
X39996Y244000D02*
X43933D01*
X339032Y81524D02*
X342969D01*
X341000Y79555D02*
Y83492D01*
X373531Y81524D02*
X377469D01*
X375500Y79555D02*
Y83492D01*
X10000Y226610D02*
Y230547D01*
X8031Y228579D02*
X11968D01*
X162500Y138532D02*
Y142469D01*
X160531Y140500D02*
X164468D01*
X58532Y241256D02*
X62469D01*
X60500Y239287D02*
Y243224D01*
X356032Y38024D02*
X359969D01*
X358000Y36055D02*
Y39992D01*
X341500Y62555D02*
Y66492D01*
X339531Y64524D02*
X343469D01*
X356032Y19024D02*
X359969D01*
X358000Y17055D02*
Y20992D01*
X356032Y28524D02*
X359969D01*
X358000Y26555D02*
Y30492D01*
X325032Y60151D02*
X328969D01*
X327000Y58183D02*
Y62120D01*
X390500Y53555D02*
Y57492D01*
X388531Y55524D02*
X392469D01*
X376031Y46524D02*
X379969D01*
X378000Y44555D02*
Y48492D01*
X293000Y141185D02*
Y145122D01*
X291032Y143154D02*
X294969D01*
X147532Y37000D02*
X151469D01*
X149500Y35031D02*
Y38968D01*
X62744Y204532D02*
Y208469D01*
X60776Y206500D02*
X64713D01*
X327563Y67555D02*
Y71492D01*
X325594Y69524D02*
X329531D01*
X146256Y133031D02*
Y136968D01*
X144287Y135000D02*
X148225D01*
D14*
X377400Y54424D02*
Y73624D01*
X371800Y54424D02*
X377400D01*
X371800Y53274D02*
Y54424D01*
X354200Y53274D02*
X371800D01*
X354200D02*
Y54424D01*
X348600D02*
X354200D01*
X348600D02*
Y73624D01*
X354200D01*
Y74774D01*
X371800D01*
Y73624D02*
Y74774D01*
Y73624D02*
X377400D01*
X358900Y129000D02*
Y171000D01*
X393100D01*
Y129000D02*
Y171000D01*
X358900Y129000D02*
X393100D01*
D78*
X161490Y107425D02*
Y124354D01*
X171727Y107425D02*
Y124354D01*
X161490Y107425D02*
X171727D01*
X161490Y124354D02*
X171727D01*
X83776Y135732D02*
X93224D01*
X83776Y118213D02*
X93224D01*
Y135732D01*
X83776Y118213D02*
Y135732D01*
X121118Y190535D02*
Y207465D01*
X110882Y190535D02*
Y207465D01*
X121118D01*
X110882Y190535D02*
X121118D01*
X106846Y194429D02*
Y205059D01*
X100154Y194429D02*
Y205059D01*
X106846D01*
X100154Y194429D02*
X106846D01*
X84382Y190000D02*
X94618D01*
X84382Y206929D02*
X94618D01*
X84382Y190000D02*
Y206929D01*
X94618Y190000D02*
Y206929D01*
X143846Y110685D02*
Y121315D01*
X137154Y110685D02*
Y121315D01*
X143846D01*
X137154Y110685D02*
X143846D01*
X57154Y218929D02*
X63846D01*
X57154Y229559D02*
X63846D01*
X57154Y218929D02*
Y229559D01*
X63846Y218929D02*
Y229559D01*
X280567Y137681D02*
Y148311D01*
X287260Y137681D02*
Y148311D01*
X280567Y137681D02*
X287260D01*
X280567Y148311D02*
X287260D01*
X350732Y87921D02*
X367268D01*
X350732Y78079D02*
X367268D01*
X350732D02*
Y87921D01*
X367268Y78079D02*
Y87921D01*
X281807Y156260D02*
X295193D01*
X281807Y163740D02*
X295193D01*
Y156260D02*
Y163740D01*
X281807Y156260D02*
Y163740D01*
X282638Y121154D02*
X293268D01*
X282638Y127846D02*
X293268D01*
Y121154D02*
Y127846D01*
X282638Y121154D02*
Y127846D01*
X193026Y110673D02*
X199719D01*
X193026Y121303D02*
X199719D01*
X193026Y110673D02*
Y121303D01*
X199719Y110673D02*
Y121303D01*
X275327Y129524D02*
Y157476D01*
X231350D02*
X275327D01*
X231350Y129524D02*
Y157476D01*
Y129524D02*
X275327D01*
X187173Y156976D02*
X231150D01*
Y129024D02*
Y156976D01*
X187173Y129024D02*
X231150D01*
X187173D02*
Y156976D01*
X188035Y191618D02*
X204965D01*
X188035Y181382D02*
X204965D01*
X188035D02*
Y191618D01*
X204965Y181382D02*
Y191618D01*
X183441Y200154D02*
Y206846D01*
X194071Y200154D02*
Y206846D01*
X183441D02*
X194071D01*
X183441Y200154D02*
X194071D01*
X110721Y110673D02*
Y121303D01*
X117414Y110673D02*
Y121303D01*
X110721Y110673D02*
X117414D01*
X110721Y121303D02*
X117414D01*
X107118Y108535D02*
Y125465D01*
X96882Y108535D02*
Y125465D01*
X107118D01*
X96882Y108535D02*
X107118D01*
X180346Y135185D02*
Y145815D01*
X173654Y135185D02*
Y145815D01*
X180346D01*
X173654Y135185D02*
X180346D01*
X139559Y200154D02*
Y206846D01*
X128929Y200154D02*
Y206846D01*
Y200154D02*
X139559D01*
X128929Y206846D02*
X139559D01*
X208487Y110673D02*
X215180D01*
X208487Y121303D02*
X215180D01*
X208487Y110673D02*
Y121303D01*
X215180Y110673D02*
Y121303D01*
X125154Y110185D02*
Y120815D01*
X131846Y110185D02*
Y120815D01*
X125154Y110185D02*
X131846D01*
X125154Y120815D02*
X131846D01*
X152846Y110185D02*
Y120815D01*
X146154Y110185D02*
Y120815D01*
X152846D01*
X146154Y110185D02*
X152846D01*
X187535Y178118D02*
X204465D01*
X187535Y167882D02*
X204465D01*
X187535D02*
Y178118D01*
X204465Y167882D02*
Y178118D01*
X87535Y172882D02*
Y183118D01*
X104465Y172882D02*
Y183118D01*
X87535D02*
X104465D01*
X87535Y172882D02*
X104465D01*
X137807Y154185D02*
Y182138D01*
X168595Y154185D02*
Y182138D01*
X137807D02*
X168595D01*
X137807Y154185D02*
X168595D01*
X33500Y208382D02*
X50429D01*
X33500Y218618D02*
X50429D01*
Y208382D02*
Y218618D01*
X33500Y208382D02*
Y218618D01*
Y223882D02*
X50429D01*
X33500Y234118D02*
X50429D01*
Y223882D02*
Y234118D01*
X33500Y223882D02*
Y234118D01*
Y238882D02*
X50429D01*
X33500Y249118D02*
X50429D01*
Y238882D02*
Y249118D01*
X33500Y238882D02*
Y249118D01*
X349268Y76602D02*
Y86445D01*
X332732Y76602D02*
Y86445D01*
Y76602D02*
X349268D01*
X332732Y86445D02*
X349268D01*
X367232Y76602D02*
Y86445D01*
X383768Y76602D02*
Y86445D01*
X367232D02*
X383768D01*
X367232Y76602D02*
X383768D01*
X3307Y253579D02*
X19055D01*
Y203579D02*
Y253579D01*
X3307Y203579D02*
Y253579D01*
Y203579D02*
X19055D01*
X159154Y135185D02*
X165846D01*
X159154Y145815D02*
X165846D01*
X159154Y135185D02*
Y145815D01*
X165846Y135185D02*
Y145815D01*
X63846Y235941D02*
Y246571D01*
X57154Y235941D02*
Y246571D01*
X63846D01*
X57154Y235941D02*
X63846D01*
X364693Y34283D02*
Y41764D01*
X351307Y34283D02*
Y41764D01*
Y34283D02*
X364693D01*
X351307Y41764D02*
X364693D01*
X337760Y57831D02*
X345240D01*
X337760Y71217D02*
X345240D01*
X337760Y57831D02*
Y71217D01*
X345240Y57831D02*
Y71217D01*
X364693Y15283D02*
Y22764D01*
X351307Y15283D02*
Y22764D01*
Y15283D02*
X364693D01*
X351307Y22764D02*
X364693D01*
Y24783D02*
Y32264D01*
X351307Y24783D02*
Y32264D01*
Y24783D02*
X364693D01*
X351307Y32264D02*
X364693D01*
X333693Y56411D02*
Y63892D01*
X320307Y56411D02*
Y63892D01*
Y56411D02*
X333693D01*
X320307Y63892D02*
X333693D01*
X386760Y48831D02*
X394240D01*
X386760Y62217D02*
X394240D01*
X386760Y48831D02*
Y62217D01*
X394240Y48831D02*
Y62217D01*
X371307Y42783D02*
Y50264D01*
X384693Y42783D02*
Y50264D01*
X371307D02*
X384693D01*
X371307Y42783D02*
X384693D01*
X289260Y149846D02*
X296740D01*
X289260Y136461D02*
X296740D01*
Y149846D01*
X289260Y136461D02*
Y149846D01*
X155996Y33260D02*
Y40740D01*
X143004Y33260D02*
Y40740D01*
Y33260D02*
X155996D01*
X143004Y40740D02*
X155996D01*
X57429Y209846D02*
X68059D01*
X57429Y203154D02*
X68059D01*
X57429D02*
Y209846D01*
X68059Y203154D02*
Y209846D01*
X319295Y64602D02*
X335831D01*
X319295Y74445D02*
X335831D01*
Y64602D02*
Y74445D01*
X319295Y64602D02*
Y74445D01*
X140941Y138346D02*
X151571D01*
X140941Y131654D02*
X151571D01*
X140941D02*
Y138346D01*
X151571Y131654D02*
Y138346D01*
M02*
