G04*
G04 #@! TF.GenerationSoftware,Altium Limited,Altium Designer,25.1.2 (22)*
G04*
G04 Layer_Color=16711935*
%FSLAX25Y25*%
%MOIN*%
G70*
G04*
G04 #@! TF.SameCoordinates,7C62D4D7-8F8D-48FC-A2E0-5C7692351293*
G04*
G04*
G04 #@! TF.FilePolarity,Positive*
G04*
G01*
G75*
%ADD10C,0.00394*%
%ADD12C,0.00787*%
%ADD13C,0.02000*%
%ADD16C,0.00500*%
%ADD80C,0.00000*%
%ADD81C,0.00100*%
%ADD82C,0.00300*%
%ADD83R,0.07480X0.01536*%
D10*
X163754Y111559D02*
Y120221D01*
X169463Y111559D02*
Y120221D01*
X163754Y111559D02*
X169463D01*
X163754Y120221D02*
X169463D01*
X84760Y132681D02*
X92240D01*
X84760Y121264D02*
X92240D01*
Y132681D01*
X84760Y121264D02*
Y132681D01*
X118854Y194669D02*
Y203331D01*
X113146Y194669D02*
Y203331D01*
X118854D01*
X113146Y194669D02*
X118854D01*
X106354Y195413D02*
Y204075D01*
X100646Y195413D02*
Y204075D01*
X106354D01*
X100646Y195413D02*
X106354D01*
X86646Y194134D02*
X92354D01*
X86646Y202795D02*
X92354D01*
X86646Y194134D02*
Y202795D01*
X92354Y194134D02*
Y202795D01*
X143354Y111669D02*
Y120331D01*
X137646Y111669D02*
Y120331D01*
X143354D01*
X137646Y111669D02*
X143354D01*
X57646Y219913D02*
X63354D01*
X57646Y228575D02*
X63354D01*
X57646Y219913D02*
Y228575D01*
X63354Y219913D02*
Y228575D01*
X281059Y138665D02*
Y147327D01*
X286768Y138665D02*
Y147327D01*
X281059Y138665D02*
X286768D01*
X281059Y147327D02*
X286768D01*
X354866Y85657D02*
X363134D01*
X354866Y80343D02*
X363134D01*
X354866D02*
Y85657D01*
X363134Y80343D02*
Y85657D01*
X284366Y157343D02*
X292634D01*
X284366Y162657D02*
X292634D01*
Y157343D02*
Y162657D01*
X284366Y157343D02*
Y162657D01*
X283622Y121646D02*
X292284D01*
X283622Y127354D02*
X292284D01*
Y121646D02*
Y127354D01*
X283622Y121646D02*
Y127354D01*
X193518Y111658D02*
X199227D01*
X193518Y120319D02*
X199227D01*
X193518Y111658D02*
Y120319D01*
X199227Y111658D02*
Y120319D01*
X192169Y189354D02*
X200831D01*
X192169Y183646D02*
X200831D01*
X192169D02*
Y189354D01*
X200831Y183646D02*
Y189354D01*
X184425Y200646D02*
Y206354D01*
X193087Y200646D02*
Y206354D01*
X184425D02*
X193087D01*
X184425Y200646D02*
X193087D01*
X111213Y111658D02*
Y120319D01*
X116922Y111658D02*
Y120319D01*
X111213Y111658D02*
X116922D01*
X111213Y120319D02*
X116922D01*
X104854Y112669D02*
Y121331D01*
X99146Y112669D02*
Y121331D01*
X104854D01*
X99146Y112669D02*
X104854D01*
X179854Y136169D02*
Y144831D01*
X174146Y136169D02*
Y144831D01*
X179854D01*
X174146Y136169D02*
X179854D01*
X138575Y200646D02*
Y206354D01*
X129913Y200646D02*
Y206354D01*
Y200646D02*
X138575D01*
X129913Y206354D02*
X138575D01*
X208979Y111658D02*
X214688D01*
X208979Y120319D02*
X214688D01*
X208979Y111658D02*
Y120319D01*
X214688Y111658D02*
Y120319D01*
X125646Y111169D02*
Y119831D01*
X131354Y111169D02*
Y119831D01*
X125646Y111169D02*
X131354D01*
X125646Y119831D02*
X131354D01*
X152354Y111169D02*
Y119831D01*
X146646Y111169D02*
Y119831D01*
X152354D01*
X146646Y111169D02*
X152354D01*
X191669Y175854D02*
X200331D01*
X191669Y170146D02*
X200331D01*
X191669D02*
Y175854D01*
X200331Y170146D02*
Y175854D01*
X91669Y175146D02*
Y180854D01*
X100331Y175146D02*
Y180854D01*
X91669D02*
X100331D01*
X91669Y175146D02*
X100331D01*
X37634Y210646D02*
X46295D01*
X37634Y216354D02*
X46295D01*
Y210646D02*
Y216354D01*
X37634Y210646D02*
Y216354D01*
Y226146D02*
X46295D01*
X37634Y231854D02*
X46295D01*
Y226146D02*
Y231854D01*
X37634Y226146D02*
Y231854D01*
Y241146D02*
X46295D01*
X37634Y246854D02*
X46295D01*
Y241146D02*
Y246854D01*
X37634Y241146D02*
Y246854D01*
X345134Y78866D02*
Y84181D01*
X336866Y78866D02*
Y84181D01*
Y78866D02*
X345134D01*
X336866Y84181D02*
X345134D01*
X371366Y78866D02*
Y84181D01*
X379634Y78866D02*
Y84181D01*
X371366D02*
X379634D01*
X371366Y78866D02*
X379634D01*
X3701Y203972D02*
Y253185D01*
Y203972D02*
X18661D01*
Y253185D01*
X3701D02*
X18661D01*
X159646Y136169D02*
X165354D01*
X159646Y144831D02*
X165354D01*
X159646Y136169D02*
Y144831D01*
X165354Y136169D02*
Y144831D01*
X63354Y236925D02*
Y245587D01*
X57646Y236925D02*
Y245587D01*
X63354D01*
X57646Y236925D02*
X63354D01*
X362134Y35366D02*
Y40681D01*
X353866Y35366D02*
Y40681D01*
Y35366D02*
X362134D01*
X353866Y40681D02*
X362134D01*
X338843Y60390D02*
X344157D01*
X338843Y68657D02*
X344157D01*
X338843Y60390D02*
Y68657D01*
X344157Y60390D02*
Y68657D01*
X362134Y16366D02*
Y21681D01*
X353866Y16366D02*
Y21681D01*
Y16366D02*
X362134D01*
X353866Y21681D02*
X362134D01*
Y25866D02*
Y31181D01*
X353866Y25866D02*
Y31181D01*
Y25866D02*
X362134D01*
X353866Y31181D02*
X362134D01*
X331134Y57494D02*
Y62809D01*
X322866Y57494D02*
Y62809D01*
Y57494D02*
X331134D01*
X322866Y62809D02*
X331134D01*
X387843Y51390D02*
X393157D01*
X387843Y59657D02*
X393157D01*
X387843Y51390D02*
Y59657D01*
X393157Y51390D02*
Y59657D01*
X373866Y43866D02*
Y49181D01*
X382134Y43866D02*
Y49181D01*
X373866D02*
X382134D01*
X373866Y43866D02*
X382134D01*
X290343Y147287D02*
X295657D01*
X290343Y139020D02*
X295657D01*
Y147287D01*
X290343Y139020D02*
Y147287D01*
X153634Y34343D02*
Y39657D01*
X145366Y34343D02*
Y39657D01*
Y34343D02*
X153634D01*
X145366Y39657D02*
X153634D01*
X58413Y209354D02*
X67075D01*
X58413Y203646D02*
X67075D01*
X58413D02*
Y209354D01*
X67075Y203646D02*
Y209354D01*
X323429Y66866D02*
X331697D01*
X323429Y72181D02*
X331697D01*
Y66866D02*
Y72181D01*
X323429Y66866D02*
Y72181D01*
X141925Y137854D02*
X150587D01*
X141925Y132146D02*
X150587D01*
X141925D02*
Y137854D01*
X150587Y132146D02*
Y137854D01*
D12*
X278673Y134504D02*
G03*
X278673Y134504I-394J0D01*
G01*
X184614Y151996D02*
G03*
X184614Y151996I-394J0D01*
G01*
X170091Y156646D02*
G03*
X170091Y156646I-394J0D01*
G01*
D13*
X370000Y140000D02*
G03*
X370000Y140000I-1500J0D01*
G01*
D16*
X262413Y130508D02*
Y156492D01*
X238398Y130508D02*
X262413D01*
X238398D02*
Y156492D01*
X262413D01*
X200087Y130008D02*
X224102D01*
Y155992D01*
X200087D02*
X224102D01*
X200087Y130008D02*
Y155992D01*
X144539Y155366D02*
Y180957D01*
X161862Y155366D02*
Y180957D01*
X144539D02*
X161862D01*
X144539Y155366D02*
X161862D01*
D80*
X364200Y54274D02*
G03*
X361800Y54274I-1200J0D01*
G01*
D81*
X370800Y55524D02*
Y57524D01*
Y55524D02*
X375000D01*
Y57524D01*
X370800D02*
X375000D01*
X370800Y60524D02*
Y62524D01*
Y60524D02*
X375000D01*
Y62524D01*
X370800D02*
X375000D01*
X370800Y65524D02*
Y67524D01*
Y65524D02*
X375000D01*
Y67524D01*
X370800D02*
X375000D01*
X370800Y70524D02*
Y72524D01*
Y70524D02*
X375000D01*
Y72524D01*
X370800D02*
X375000D01*
X355200Y70524D02*
Y72524D01*
X351000D02*
X355200D01*
X351000Y70524D02*
Y72524D01*
Y70524D02*
X355200D01*
Y65524D02*
Y67524D01*
X351000D02*
X355200D01*
X351000Y65524D02*
Y67524D01*
Y65524D02*
X355200D01*
Y60524D02*
Y62524D01*
X351000D02*
X355200D01*
X351000Y60524D02*
Y62524D01*
Y60524D02*
X355200D01*
Y55524D02*
Y57524D01*
X351000D02*
X355200D01*
X351000Y55524D02*
Y57524D01*
Y55524D02*
X355200D01*
Y73774D02*
X370800D01*
X355200Y54274D02*
Y73774D01*
Y54274D02*
X370800D01*
Y73774D01*
X359900Y130000D02*
X392100D01*
X359900D02*
Y170000D01*
X392100D01*
Y130000D02*
Y170000D01*
D82*
X370550Y55408D02*
X367218Y58741D01*
X370550D02*
X367218Y55408D01*
X370550Y57074D02*
X367218D01*
X368884Y58741D02*
Y55408D01*
D83*
X88500Y131913D02*
D03*
M02*
