G04*
G04 #@! TF.GenerationSoftware,Altium Limited,Altium Designer,25.1.2 (22)*
G04*
G04 Layer_Color=255*
%FSLAX25Y25*%
%MOIN*%
G70*
G04*
G04 #@! TF.SameCoordinates,A459EDE3-80A4-426C-A58C-906856A2545A*
G04*
G04*
G04 #@! TF.FilePolarity,Positive*
G04*
G01*
G75*
%ADD16R,0.03827X0.03158*%
%ADD17R,0.06102X0.04921*%
%ADD18R,0.05709X0.06299*%
%ADD19R,0.05315X0.04331*%
%ADD20R,0.05315X0.03347*%
%ADD21R,0.06132X0.02923*%
G04:AMPARAMS|DCode=22|XSize=61.32mil|YSize=29.23mil|CornerRadius=14.62mil|HoleSize=0mil|Usage=FLASHONLY|Rotation=0.000|XOffset=0mil|YOffset=0mil|HoleType=Round|Shape=RoundedRectangle|*
%AMROUNDEDRECTD22*
21,1,0.06132,0.00000,0,0,0.0*
21,1,0.03209,0.02923,0,0,0.0*
1,1,0.02923,0.01604,0.00000*
1,1,0.02923,-0.01604,0.00000*
1,1,0.02923,-0.01604,0.00000*
1,1,0.02923,0.01604,0.00000*
%
%ADD22ROUNDEDRECTD22*%
%ADD23R,0.05315X0.03937*%
%ADD24R,0.05600X0.02200*%
%ADD25R,0.04724X0.05709*%
%ADD26R,0.04724X0.05512*%
%ADD27R,0.03937X0.05315*%
%ADD28R,0.09016X0.05512*%
%ADD29R,0.04921X0.06102*%
%ADD30R,0.04331X0.05315*%
%ADD31R,0.09843X0.06693*%
G04:AMPARAMS|DCode=32|XSize=61.81mil|YSize=16.14mil|CornerRadius=2.02mil|HoleSize=0mil|Usage=FLASHONLY|Rotation=180.000|XOffset=0mil|YOffset=0mil|HoleType=Round|Shape=RoundedRectangle|*
%AMROUNDEDRECTD32*
21,1,0.06181,0.01211,0,0,180.0*
21,1,0.05778,0.01614,0,0,180.0*
1,1,0.00404,-0.02889,0.00605*
1,1,0.00404,0.02889,0.00605*
1,1,0.00404,0.02889,-0.00605*
1,1,0.00404,-0.02889,-0.00605*
%
%ADD32ROUNDEDRECTD32*%
%ADD33R,0.15748X0.15158*%
G04:AMPARAMS|DCode=34|XSize=93.59mil|YSize=24.49mil|CornerRadius=12.25mil|HoleSize=0mil|Usage=FLASHONLY|Rotation=270.000|XOffset=0mil|YOffset=0mil|HoleType=Round|Shape=RoundedRectangle|*
%AMROUNDEDRECTD34*
21,1,0.09359,0.00000,0,0,270.0*
21,1,0.06909,0.02449,0,0,270.0*
1,1,0.02449,0.00000,-0.03455*
1,1,0.02449,0.00000,0.03455*
1,1,0.02449,0.00000,0.03455*
1,1,0.02449,0.00000,-0.03455*
%
%ADD34ROUNDEDRECTD34*%
%ADD35R,0.02449X0.09359*%
G04:AMPARAMS|DCode=36|XSize=53.36mil|YSize=22.14mil|CornerRadius=11.07mil|HoleSize=0mil|Usage=FLASHONLY|Rotation=90.000|XOffset=0mil|YOffset=0mil|HoleType=Round|Shape=RoundedRectangle|*
%AMROUNDEDRECTD36*
21,1,0.05336,0.00000,0,0,90.0*
21,1,0.03121,0.02214,0,0,90.0*
1,1,0.02214,0.00000,0.01561*
1,1,0.02214,0.00000,-0.01561*
1,1,0.02214,0.00000,-0.01561*
1,1,0.02214,0.00000,0.01561*
%
%ADD36ROUNDEDRECTD36*%
%ADD37R,0.02214X0.05336*%
%ADD38R,0.05512X0.04724*%
%ADD39R,0.11024X0.06299*%
%ADD45R,0.10700X0.13200*%
%ADD64C,0.05118*%
%ADD65R,0.05118X0.05118*%
%ADD67R,0.24331X0.22402*%
%ADD70C,0.07087*%
%ADD71R,0.07087X0.07087*%
%ADD72R,0.06299X0.06299*%
%ADD73C,0.06299*%
%ADD74R,0.08976X0.08976*%
%ADD75C,0.08976*%
%ADD76C,0.05512*%
%ADD77R,0.05512X0.05512*%
D16*
X185911Y114496D02*
D03*
Y121977D02*
D03*
X178943Y118236D02*
D03*
D17*
X166609Y111854D02*
D03*
Y119925D02*
D03*
X116000Y203035D02*
D03*
Y194965D02*
D03*
X89500Y194429D02*
D03*
Y202500D02*
D03*
X102000Y121035D02*
D03*
Y112965D02*
D03*
D18*
X88500Y131500D02*
D03*
Y122445D02*
D03*
D19*
X103500Y202500D02*
D03*
Y196988D02*
D03*
X60500Y221488D02*
D03*
Y227000D02*
D03*
X196372Y113232D02*
D03*
Y118744D02*
D03*
X114067Y113232D02*
D03*
Y118744D02*
D03*
X211833Y113232D02*
D03*
Y118744D02*
D03*
X128500Y112744D02*
D03*
Y118256D02*
D03*
X149500Y118256D02*
D03*
Y112744D02*
D03*
X60500Y244012D02*
D03*
Y238500D02*
D03*
D20*
X140500Y119248D02*
D03*
Y112752D02*
D03*
X162500Y137252D02*
D03*
Y143748D02*
D03*
D21*
X281500Y112500D02*
D03*
D22*
X294889D02*
D03*
D23*
X283913Y140043D02*
D03*
Y145949D02*
D03*
X177000Y143453D02*
D03*
Y137547D02*
D03*
D24*
X373600Y56524D02*
D03*
Y61524D02*
D03*
Y66524D02*
D03*
Y71524D02*
D03*
X352400D02*
D03*
Y66524D02*
D03*
Y61524D02*
D03*
Y56524D02*
D03*
D25*
X355063Y83000D02*
D03*
X362937D02*
D03*
X344937Y81524D02*
D03*
X337063D02*
D03*
X371563D02*
D03*
X379437D02*
D03*
X331500Y69524D02*
D03*
X323626D02*
D03*
D26*
X291846Y160000D02*
D03*
X285154D02*
D03*
X361346Y38024D02*
D03*
X354654D02*
D03*
X361346Y19024D02*
D03*
X354654D02*
D03*
X361346Y28524D02*
D03*
X354654D02*
D03*
X330346Y60151D02*
D03*
X323654D02*
D03*
X374654Y46524D02*
D03*
X381346D02*
D03*
D27*
X290906Y124500D02*
D03*
X285000D02*
D03*
X153043Y37000D02*
D03*
X145957D02*
D03*
D28*
X269835Y134504D02*
D03*
Y152496D02*
D03*
X192665Y134004D02*
D03*
Y151996D02*
D03*
D29*
X192465Y186500D02*
D03*
X200535D02*
D03*
X191965Y173000D02*
D03*
X200035D02*
D03*
X91965Y178000D02*
D03*
X100035D02*
D03*
X46000Y213500D02*
D03*
X37929D02*
D03*
X46000Y229000D02*
D03*
X37929D02*
D03*
X46000Y244000D02*
D03*
X37929D02*
D03*
D30*
X186000Y203500D02*
D03*
X191512D02*
D03*
X137000D02*
D03*
X131488D02*
D03*
X59988Y206500D02*
D03*
X65500D02*
D03*
X143500Y135000D02*
D03*
X149012D02*
D03*
D31*
X106248Y147500D02*
D03*
X90500D02*
D03*
D32*
X141902Y156646D02*
D03*
Y159205D02*
D03*
Y161764D02*
D03*
Y164323D02*
D03*
Y166882D02*
D03*
Y169441D02*
D03*
Y172000D02*
D03*
Y174559D02*
D03*
Y177118D02*
D03*
Y179677D02*
D03*
X164500D02*
D03*
Y177118D02*
D03*
Y174559D02*
D03*
Y172000D02*
D03*
Y169441D02*
D03*
Y166882D02*
D03*
Y164323D02*
D03*
Y161764D02*
D03*
Y159205D02*
D03*
Y156646D02*
D03*
D33*
X325500Y9465D02*
D03*
Y39583D02*
D03*
D34*
X324000Y135482D02*
D03*
X319000D02*
D03*
X314000D02*
D03*
X309000D02*
D03*
Y154518D02*
D03*
X314000D02*
D03*
X319000D02*
D03*
D35*
X324000D02*
D03*
D36*
X149500Y61644D02*
D03*
X153240Y54356D02*
D03*
D37*
X145760D02*
D03*
D38*
X341500Y61177D02*
D03*
Y67870D02*
D03*
X390500Y52177D02*
D03*
Y58870D02*
D03*
X293000Y146500D02*
D03*
Y139807D02*
D03*
D39*
X349535Y107000D02*
D03*
X366465D02*
D03*
D45*
X363000Y64024D02*
D03*
D64*
X145626Y12000D02*
D03*
X270626Y12138D02*
D03*
X278500D02*
D03*
D65*
X153500Y12000D02*
D03*
X286374Y12138D02*
D03*
D67*
X244500Y143500D02*
D03*
X218000Y143000D02*
D03*
D70*
X377000Y157500D02*
D03*
D71*
Y137500D02*
D03*
D72*
X68000Y81000D02*
D03*
X158000D02*
D03*
X32000Y261000D02*
D03*
X138000D02*
D03*
X47500Y61000D02*
D03*
D73*
X78000Y81000D02*
D03*
X88000D02*
D03*
X98000D02*
D03*
X108000D02*
D03*
X118000D02*
D03*
X128000D02*
D03*
X138000D02*
D03*
X68000Y91000D02*
D03*
X78000D02*
D03*
X88000D02*
D03*
X98000D02*
D03*
X108000D02*
D03*
X118000D02*
D03*
X128000D02*
D03*
X138000D02*
D03*
X248000D02*
D03*
X298000D02*
D03*
X288000Y81000D02*
D03*
X298000D02*
D03*
X288000Y91000D02*
D03*
X278000D02*
D03*
X268000D02*
D03*
X258000D02*
D03*
X238000D02*
D03*
X228000D02*
D03*
X218000D02*
D03*
X208000D02*
D03*
X198000D02*
D03*
X188000D02*
D03*
X178000D02*
D03*
X168000D02*
D03*
X158000D02*
D03*
X278000Y81000D02*
D03*
X268000D02*
D03*
X258000D02*
D03*
X248000D02*
D03*
X238000D02*
D03*
X228000D02*
D03*
X218000D02*
D03*
X208000D02*
D03*
X198000D02*
D03*
X188000D02*
D03*
X178000D02*
D03*
X168000D02*
D03*
X122000Y271000D02*
D03*
X112000D02*
D03*
X102000D02*
D03*
X92000D02*
D03*
X82000D02*
D03*
X72000D02*
D03*
X62000D02*
D03*
X52000D02*
D03*
X42000D02*
D03*
X122000Y261000D02*
D03*
X112000D02*
D03*
X102000D02*
D03*
X92000D02*
D03*
X82000D02*
D03*
X72000D02*
D03*
X62000D02*
D03*
X52000D02*
D03*
X42000D02*
D03*
X32000Y271000D02*
D03*
X298000D02*
D03*
X288000D02*
D03*
X278000D02*
D03*
X268000D02*
D03*
X258000D02*
D03*
X248000D02*
D03*
X238000D02*
D03*
X228000D02*
D03*
X218000D02*
D03*
X208000D02*
D03*
X198000D02*
D03*
X188000D02*
D03*
X178000D02*
D03*
X168000D02*
D03*
X158000D02*
D03*
X148000D02*
D03*
X138000D02*
D03*
X298000Y261000D02*
D03*
X288000D02*
D03*
X278000D02*
D03*
X268000D02*
D03*
X258000D02*
D03*
X248000D02*
D03*
X238000D02*
D03*
X228000D02*
D03*
X218000D02*
D03*
X208000D02*
D03*
X198000D02*
D03*
X188000D02*
D03*
X178000D02*
D03*
X168000D02*
D03*
X158000D02*
D03*
X148000D02*
D03*
X57500Y61000D02*
D03*
D74*
X55500Y130000D02*
D03*
D75*
X15500D02*
D03*
X55500Y170000D02*
D03*
X15500D02*
D03*
D76*
X10000Y243343D02*
D03*
Y233500D02*
D03*
Y223657D02*
D03*
D77*
Y213815D02*
D03*
M02*
