G04*
G04 #@! TF.GenerationSoftware,Altium Limited,Altium Designer,25.1.2 (22)*
G04*
G04 Layer_Color=32768*
%FSLAX25Y25*%
%MOIN*%
G70*
G04*
G04 #@! TF.SameCoordinates,A459EDE3-80A4-426C-A58C-906856A2545A*
G04*
G04*
G04 #@! TF.FilePolarity,Positive*
G04*
G01*
G75*
%ADD12C,0.00787*%
%ADD80C,0.00197*%
D12*
X176636Y111858D02*
X188219D01*
X176636D02*
Y124614D01*
X188219D01*
Y111858D02*
Y124614D01*
X276466Y117520D02*
X299923D01*
Y107480D02*
Y117520D01*
X276466Y107480D02*
X299923D01*
X276466D02*
Y117520D01*
X85185Y141398D02*
X111563D01*
X85185D02*
Y153602D01*
X111563D01*
Y141398D02*
Y153602D01*
X136768Y4126D02*
Y24598D01*
Y4126D02*
X162358D01*
Y24598D01*
X136768D02*
X162358D01*
X261768Y4264D02*
Y24736D01*
Y4264D02*
X295232D01*
Y24736D01*
X261768D02*
X295232D01*
X304886Y161166D02*
X328114D01*
X304886Y128834D02*
Y161166D01*
Y128834D02*
X328114D01*
Y161166D01*
X142807Y50704D02*
X156193D01*
Y65296D01*
X142807D02*
X156193D01*
X142807Y50704D02*
Y65296D01*
X372961Y95189D02*
Y118811D01*
X343039D02*
X372961D01*
X343039Y95189D02*
Y118811D01*
Y95189D02*
X372961D01*
D80*
X323532Y24524D02*
X327469D01*
X325500Y22555D02*
Y26492D01*
X303650Y47949D02*
X347350D01*
Y1098D02*
Y47949D01*
X303650Y1098D02*
X347350D01*
X303650D02*
Y47949D01*
M02*
