G04*
G04 #@! TF.GenerationSoftware,Altium Limited,Altium Designer,25.1.2 (22)*
G04*
G04 Layer_Physical_Order=2*
G04 Layer_Color=16711680*
%FSLAX25Y25*%
%MOIN*%
G70*
G04*
G04 #@! TF.SameCoordinates,A459EDE3-80A4-426C-A58C-906856A2545A*
G04*
G04*
G04 #@! TF.FilePolarity,Positive*
G04*
G01*
G75*
%ADD14C,0.01000*%
%ADD64C,0.05118*%
%ADD65R,0.05118X0.05118*%
%ADD68C,0.03937*%
%ADD69C,0.01968*%
%ADD70C,0.07087*%
%ADD71R,0.07087X0.07087*%
%ADD72R,0.06299X0.06299*%
%ADD73C,0.06299*%
%ADD74R,0.08976X0.08976*%
%ADD75C,0.08976*%
%ADD76C,0.05512*%
%ADD77R,0.05512X0.05512*%
%ADD78C,0.05000*%
%ADD79C,0.07874*%
G36*
X393500Y335847D02*
Y500D01*
X501D01*
X374Y501D01*
X2Y656D01*
X1000Y336000D01*
X393000D01*
X393038Y336038D01*
X393500Y335847D01*
D02*
G37*
%LPC*%
G36*
X298546Y275150D02*
X297454D01*
X296398Y274867D01*
X295452Y274321D01*
X294679Y273548D01*
X294133Y272602D01*
X293850Y271546D01*
Y270454D01*
X294133Y269398D01*
X294679Y268452D01*
X295452Y267680D01*
X296398Y267133D01*
X297454Y266850D01*
X298546D01*
X299602Y267133D01*
X300548Y267680D01*
X301321Y268452D01*
X301867Y269398D01*
X302150Y270454D01*
Y271546D01*
X301867Y272602D01*
X301321Y273548D01*
X300548Y274321D01*
X299602Y274867D01*
X298546Y275150D01*
D02*
G37*
G36*
X288546D02*
X287454D01*
X286398Y274867D01*
X285452Y274321D01*
X284680Y273548D01*
X284133Y272602D01*
X283850Y271546D01*
Y270454D01*
X284133Y269398D01*
X284680Y268452D01*
X285452Y267680D01*
X286398Y267133D01*
X287454Y266850D01*
X288546D01*
X289602Y267133D01*
X290548Y267680D01*
X291320Y268452D01*
X291867Y269398D01*
X292150Y270454D01*
Y271546D01*
X291867Y272602D01*
X291320Y273548D01*
X290548Y274321D01*
X289602Y274867D01*
X288546Y275150D01*
D02*
G37*
G36*
X278546D02*
X277454D01*
X276398Y274867D01*
X275452Y274321D01*
X274679Y273548D01*
X274133Y272602D01*
X273850Y271546D01*
Y270454D01*
X274133Y269398D01*
X274679Y268452D01*
X275452Y267680D01*
X276398Y267133D01*
X277454Y266850D01*
X278546D01*
X279602Y267133D01*
X280548Y267680D01*
X281321Y268452D01*
X281867Y269398D01*
X282150Y270454D01*
Y271546D01*
X281867Y272602D01*
X281321Y273548D01*
X280548Y274321D01*
X279602Y274867D01*
X278546Y275150D01*
D02*
G37*
G36*
X268546D02*
X267454D01*
X266398Y274867D01*
X265452Y274321D01*
X264680Y273548D01*
X264133Y272602D01*
X263850Y271546D01*
Y270454D01*
X264133Y269398D01*
X264680Y268452D01*
X265452Y267680D01*
X266398Y267133D01*
X267454Y266850D01*
X268546D01*
X269602Y267133D01*
X270548Y267680D01*
X271321Y268452D01*
X271867Y269398D01*
X272150Y270454D01*
Y271546D01*
X271867Y272602D01*
X271321Y273548D01*
X270548Y274321D01*
X269602Y274867D01*
X268546Y275150D01*
D02*
G37*
G36*
X258546D02*
X257454D01*
X256398Y274867D01*
X255452Y274321D01*
X254679Y273548D01*
X254133Y272602D01*
X253850Y271546D01*
Y270454D01*
X254133Y269398D01*
X254679Y268452D01*
X255452Y267680D01*
X256398Y267133D01*
X257454Y266850D01*
X258546D01*
X259602Y267133D01*
X260548Y267680D01*
X261320Y268452D01*
X261867Y269398D01*
X262150Y270454D01*
Y271546D01*
X261867Y272602D01*
X261320Y273548D01*
X260548Y274321D01*
X259602Y274867D01*
X258546Y275150D01*
D02*
G37*
G36*
X248546D02*
X247454D01*
X246398Y274867D01*
X245452Y274321D01*
X244679Y273548D01*
X244133Y272602D01*
X243850Y271546D01*
Y270454D01*
X244133Y269398D01*
X244679Y268452D01*
X245452Y267680D01*
X246398Y267133D01*
X247454Y266850D01*
X248546D01*
X249602Y267133D01*
X250548Y267680D01*
X251321Y268452D01*
X251867Y269398D01*
X252150Y270454D01*
Y271546D01*
X251867Y272602D01*
X251321Y273548D01*
X250548Y274321D01*
X249602Y274867D01*
X248546Y275150D01*
D02*
G37*
G36*
X238546D02*
X237454D01*
X236398Y274867D01*
X235452Y274321D01*
X234680Y273548D01*
X234133Y272602D01*
X233850Y271546D01*
Y270454D01*
X234133Y269398D01*
X234680Y268452D01*
X235452Y267680D01*
X236398Y267133D01*
X237454Y266850D01*
X238546D01*
X239602Y267133D01*
X240548Y267680D01*
X241320Y268452D01*
X241867Y269398D01*
X242150Y270454D01*
Y271546D01*
X241867Y272602D01*
X241320Y273548D01*
X240548Y274321D01*
X239602Y274867D01*
X238546Y275150D01*
D02*
G37*
G36*
X228546D02*
X227454D01*
X226398Y274867D01*
X225452Y274321D01*
X224679Y273548D01*
X224133Y272602D01*
X223850Y271546D01*
Y270454D01*
X224133Y269398D01*
X224679Y268452D01*
X225452Y267680D01*
X226398Y267133D01*
X227454Y266850D01*
X228546D01*
X229602Y267133D01*
X230548Y267680D01*
X231321Y268452D01*
X231867Y269398D01*
X232150Y270454D01*
Y271546D01*
X231867Y272602D01*
X231321Y273548D01*
X230548Y274321D01*
X229602Y274867D01*
X228546Y275150D01*
D02*
G37*
G36*
X218546D02*
X217454D01*
X216398Y274867D01*
X215452Y274321D01*
X214680Y273548D01*
X214133Y272602D01*
X213850Y271546D01*
Y270454D01*
X214133Y269398D01*
X214680Y268452D01*
X215452Y267680D01*
X216398Y267133D01*
X217454Y266850D01*
X218546D01*
X219602Y267133D01*
X220548Y267680D01*
X221321Y268452D01*
X221867Y269398D01*
X222150Y270454D01*
Y271546D01*
X221867Y272602D01*
X221321Y273548D01*
X220548Y274321D01*
X219602Y274867D01*
X218546Y275150D01*
D02*
G37*
G36*
X208546D02*
X207454D01*
X206398Y274867D01*
X205452Y274321D01*
X204679Y273548D01*
X204133Y272602D01*
X203850Y271546D01*
Y270454D01*
X204133Y269398D01*
X204679Y268452D01*
X205452Y267680D01*
X206398Y267133D01*
X207454Y266850D01*
X208546D01*
X209602Y267133D01*
X210548Y267680D01*
X211320Y268452D01*
X211867Y269398D01*
X212150Y270454D01*
Y271546D01*
X211867Y272602D01*
X211320Y273548D01*
X210548Y274321D01*
X209602Y274867D01*
X208546Y275150D01*
D02*
G37*
G36*
X198546D02*
X197454D01*
X196398Y274867D01*
X195452Y274321D01*
X194679Y273548D01*
X194133Y272602D01*
X193850Y271546D01*
Y270454D01*
X194133Y269398D01*
X194679Y268452D01*
X195452Y267680D01*
X196398Y267133D01*
X197454Y266850D01*
X198546D01*
X199602Y267133D01*
X200548Y267680D01*
X201321Y268452D01*
X201867Y269398D01*
X202150Y270454D01*
Y271546D01*
X201867Y272602D01*
X201321Y273548D01*
X200548Y274321D01*
X199602Y274867D01*
X198546Y275150D01*
D02*
G37*
G36*
X188546D02*
X187454D01*
X186398Y274867D01*
X185452Y274321D01*
X184679Y273548D01*
X184133Y272602D01*
X183850Y271546D01*
Y270454D01*
X184133Y269398D01*
X184679Y268452D01*
X185452Y267680D01*
X186398Y267133D01*
X187454Y266850D01*
X188546D01*
X189602Y267133D01*
X190548Y267680D01*
X191321Y268452D01*
X191867Y269398D01*
X192150Y270454D01*
Y271546D01*
X191867Y272602D01*
X191321Y273548D01*
X190548Y274321D01*
X189602Y274867D01*
X188546Y275150D01*
D02*
G37*
G36*
X178546D02*
X177454D01*
X176398Y274867D01*
X175452Y274321D01*
X174680Y273548D01*
X174133Y272602D01*
X173850Y271546D01*
Y270454D01*
X174133Y269398D01*
X174680Y268452D01*
X175452Y267680D01*
X176398Y267133D01*
X177454Y266850D01*
X178546D01*
X179602Y267133D01*
X180548Y267680D01*
X181321Y268452D01*
X181867Y269398D01*
X182150Y270454D01*
Y271546D01*
X181867Y272602D01*
X181321Y273548D01*
X180548Y274321D01*
X179602Y274867D01*
X178546Y275150D01*
D02*
G37*
G36*
X168546D02*
X167454D01*
X166398Y274867D01*
X165452Y274321D01*
X164680Y273548D01*
X164133Y272602D01*
X163850Y271546D01*
Y270454D01*
X164133Y269398D01*
X164680Y268452D01*
X165452Y267680D01*
X166398Y267133D01*
X167454Y266850D01*
X168546D01*
X169602Y267133D01*
X170548Y267680D01*
X171320Y268452D01*
X171867Y269398D01*
X172150Y270454D01*
Y271546D01*
X171867Y272602D01*
X171320Y273548D01*
X170548Y274321D01*
X169602Y274867D01*
X168546Y275150D01*
D02*
G37*
G36*
X158546D02*
X157454D01*
X156398Y274867D01*
X155452Y274321D01*
X154680Y273548D01*
X154133Y272602D01*
X153850Y271546D01*
Y270454D01*
X154133Y269398D01*
X154680Y268452D01*
X155452Y267680D01*
X156398Y267133D01*
X157454Y266850D01*
X158546D01*
X159602Y267133D01*
X160548Y267680D01*
X161320Y268452D01*
X161867Y269398D01*
X162150Y270454D01*
Y271546D01*
X161867Y272602D01*
X161320Y273548D01*
X160548Y274321D01*
X159602Y274867D01*
X158546Y275150D01*
D02*
G37*
G36*
X148546D02*
X147454D01*
X146398Y274867D01*
X145452Y274321D01*
X144679Y273548D01*
X144133Y272602D01*
X143850Y271546D01*
Y270454D01*
X144133Y269398D01*
X144679Y268452D01*
X145452Y267680D01*
X146398Y267133D01*
X147454Y266850D01*
X148546D01*
X149602Y267133D01*
X150548Y267680D01*
X151321Y268452D01*
X151867Y269398D01*
X152150Y270454D01*
Y271546D01*
X151867Y272602D01*
X151321Y273548D01*
X150548Y274321D01*
X149602Y274867D01*
X148546Y275150D01*
D02*
G37*
G36*
X138546D02*
X137454D01*
X136398Y274867D01*
X135452Y274321D01*
X134679Y273548D01*
X134133Y272602D01*
X133850Y271546D01*
Y270454D01*
X134133Y269398D01*
X134679Y268452D01*
X135452Y267680D01*
X136398Y267133D01*
X137454Y266850D01*
X138546D01*
X139602Y267133D01*
X140548Y267680D01*
X141321Y268452D01*
X141867Y269398D01*
X142150Y270454D01*
Y271546D01*
X141867Y272602D01*
X141321Y273548D01*
X140548Y274321D01*
X139602Y274867D01*
X138546Y275150D01*
D02*
G37*
G36*
X122546D02*
X121454D01*
X120398Y274867D01*
X119452Y274321D01*
X118679Y273548D01*
X118133Y272602D01*
X117850Y271546D01*
Y270454D01*
X118133Y269398D01*
X118679Y268452D01*
X119452Y267680D01*
X120398Y267133D01*
X121454Y266850D01*
X122546D01*
X123602Y267133D01*
X124548Y267680D01*
X125320Y268452D01*
X125867Y269398D01*
X126150Y270454D01*
Y271546D01*
X125867Y272602D01*
X125320Y273548D01*
X124548Y274321D01*
X123602Y274867D01*
X122546Y275150D01*
D02*
G37*
G36*
X112546D02*
X111454D01*
X110398Y274867D01*
X109452Y274321D01*
X108679Y273548D01*
X108133Y272602D01*
X107850Y271546D01*
Y270454D01*
X108133Y269398D01*
X108679Y268452D01*
X109452Y267680D01*
X110398Y267133D01*
X111454Y266850D01*
X112546D01*
X113602Y267133D01*
X114548Y267680D01*
X115321Y268452D01*
X115867Y269398D01*
X116150Y270454D01*
Y271546D01*
X115867Y272602D01*
X115321Y273548D01*
X114548Y274321D01*
X113602Y274867D01*
X112546Y275150D01*
D02*
G37*
G36*
X102546D02*
X101454D01*
X100398Y274867D01*
X99452Y274321D01*
X98680Y273548D01*
X98133Y272602D01*
X97850Y271546D01*
Y270454D01*
X98133Y269398D01*
X98680Y268452D01*
X99452Y267680D01*
X100398Y267133D01*
X101454Y266850D01*
X102546D01*
X103602Y267133D01*
X104548Y267680D01*
X105321Y268452D01*
X105867Y269398D01*
X106150Y270454D01*
Y271546D01*
X105867Y272602D01*
X105321Y273548D01*
X104548Y274321D01*
X103602Y274867D01*
X102546Y275150D01*
D02*
G37*
G36*
X92546D02*
X91454D01*
X90398Y274867D01*
X89452Y274321D01*
X88679Y273548D01*
X88133Y272602D01*
X87850Y271546D01*
Y270454D01*
X88133Y269398D01*
X88679Y268452D01*
X89452Y267680D01*
X90398Y267133D01*
X91454Y266850D01*
X92546D01*
X93602Y267133D01*
X94548Y267680D01*
X95320Y268452D01*
X95867Y269398D01*
X96150Y270454D01*
Y271546D01*
X95867Y272602D01*
X95320Y273548D01*
X94548Y274321D01*
X93602Y274867D01*
X92546Y275150D01*
D02*
G37*
G36*
X82546D02*
X81454D01*
X80398Y274867D01*
X79452Y274321D01*
X78680Y273548D01*
X78133Y272602D01*
X77850Y271546D01*
Y270454D01*
X78133Y269398D01*
X78680Y268452D01*
X79452Y267680D01*
X80398Y267133D01*
X81454Y266850D01*
X82546D01*
X83602Y267133D01*
X84548Y267680D01*
X85321Y268452D01*
X85867Y269398D01*
X86150Y270454D01*
Y271546D01*
X85867Y272602D01*
X85321Y273548D01*
X84548Y274321D01*
X83602Y274867D01*
X82546Y275150D01*
D02*
G37*
G36*
X72546D02*
X71454D01*
X70398Y274867D01*
X69452Y274321D01*
X68679Y273548D01*
X68133Y272602D01*
X67850Y271546D01*
Y270454D01*
X68133Y269398D01*
X68679Y268452D01*
X69452Y267680D01*
X70398Y267133D01*
X71454Y266850D01*
X72546D01*
X73602Y267133D01*
X74548Y267680D01*
X75321Y268452D01*
X75867Y269398D01*
X76150Y270454D01*
Y271546D01*
X75867Y272602D01*
X75321Y273548D01*
X74548Y274321D01*
X73602Y274867D01*
X72546Y275150D01*
D02*
G37*
G36*
X62546D02*
X61454D01*
X60398Y274867D01*
X59452Y274321D01*
X58679Y273548D01*
X58133Y272602D01*
X57850Y271546D01*
Y270454D01*
X58133Y269398D01*
X58679Y268452D01*
X59452Y267680D01*
X60398Y267133D01*
X61454Y266850D01*
X62546D01*
X63602Y267133D01*
X64548Y267680D01*
X65320Y268452D01*
X65867Y269398D01*
X66150Y270454D01*
Y271546D01*
X65867Y272602D01*
X65320Y273548D01*
X64548Y274321D01*
X63602Y274867D01*
X62546Y275150D01*
D02*
G37*
G36*
X52546D02*
X51454D01*
X50398Y274867D01*
X49452Y274321D01*
X48680Y273548D01*
X48133Y272602D01*
X47850Y271546D01*
Y270454D01*
X48133Y269398D01*
X48680Y268452D01*
X49452Y267680D01*
X50398Y267133D01*
X51454Y266850D01*
X52546D01*
X53602Y267133D01*
X54548Y267680D01*
X55321Y268452D01*
X55867Y269398D01*
X56150Y270454D01*
Y271546D01*
X55867Y272602D01*
X55321Y273548D01*
X54548Y274321D01*
X53602Y274867D01*
X52546Y275150D01*
D02*
G37*
G36*
X42546D02*
X41454D01*
X40398Y274867D01*
X39452Y274321D01*
X38680Y273548D01*
X38133Y272602D01*
X37850Y271546D01*
Y270454D01*
X38133Y269398D01*
X38680Y268452D01*
X39452Y267680D01*
X40398Y267133D01*
X41454Y266850D01*
X42546D01*
X43602Y267133D01*
X44548Y267680D01*
X45320Y268452D01*
X45867Y269398D01*
X46150Y270454D01*
Y271546D01*
X45867Y272602D01*
X45320Y273548D01*
X44548Y274321D01*
X43602Y274867D01*
X42546Y275150D01*
D02*
G37*
G36*
X32546D02*
X31454D01*
X30398Y274867D01*
X29452Y274321D01*
X28679Y273548D01*
X28133Y272602D01*
X27850Y271546D01*
Y270454D01*
X28133Y269398D01*
X28679Y268452D01*
X29452Y267680D01*
X30398Y267133D01*
X31454Y266850D01*
X32546D01*
X33602Y267133D01*
X34548Y267680D01*
X35320Y268452D01*
X35867Y269398D01*
X36150Y270454D01*
Y271546D01*
X35867Y272602D01*
X35320Y273548D01*
X34548Y274321D01*
X33602Y274867D01*
X32546Y275150D01*
D02*
G37*
G36*
X298546Y265150D02*
X297454D01*
X296398Y264867D01*
X295452Y264320D01*
X294679Y263548D01*
X294133Y262602D01*
X293850Y261546D01*
Y260454D01*
X294133Y259398D01*
X294679Y258452D01*
X295452Y257680D01*
X296398Y257133D01*
X297454Y256850D01*
X298546D01*
X299602Y257133D01*
X300548Y257680D01*
X301321Y258452D01*
X301867Y259398D01*
X302150Y260454D01*
Y261546D01*
X301867Y262602D01*
X301321Y263548D01*
X300548Y264320D01*
X299602Y264867D01*
X298546Y265150D01*
D02*
G37*
G36*
X288546D02*
X287454D01*
X286398Y264867D01*
X285452Y264320D01*
X284680Y263548D01*
X284133Y262602D01*
X283850Y261546D01*
Y260454D01*
X284133Y259398D01*
X284680Y258452D01*
X285452Y257680D01*
X286398Y257133D01*
X287454Y256850D01*
X288546D01*
X289602Y257133D01*
X290548Y257680D01*
X291320Y258452D01*
X291867Y259398D01*
X292150Y260454D01*
Y261546D01*
X291867Y262602D01*
X291320Y263548D01*
X290548Y264320D01*
X289602Y264867D01*
X288546Y265150D01*
D02*
G37*
G36*
X278546D02*
X277454D01*
X276398Y264867D01*
X275452Y264320D01*
X274679Y263548D01*
X274133Y262602D01*
X273850Y261546D01*
Y260454D01*
X274133Y259398D01*
X274679Y258452D01*
X275452Y257680D01*
X276398Y257133D01*
X277454Y256850D01*
X278546D01*
X279602Y257133D01*
X280548Y257680D01*
X281321Y258452D01*
X281867Y259398D01*
X282150Y260454D01*
Y261546D01*
X281867Y262602D01*
X281321Y263548D01*
X280548Y264320D01*
X279602Y264867D01*
X278546Y265150D01*
D02*
G37*
G36*
X268546D02*
X267454D01*
X266398Y264867D01*
X265452Y264320D01*
X264680Y263548D01*
X264133Y262602D01*
X263850Y261546D01*
Y260454D01*
X264133Y259398D01*
X264680Y258452D01*
X265452Y257680D01*
X266398Y257133D01*
X267454Y256850D01*
X268546D01*
X269602Y257133D01*
X270548Y257680D01*
X271321Y258452D01*
X271867Y259398D01*
X272150Y260454D01*
Y261546D01*
X271867Y262602D01*
X271321Y263548D01*
X270548Y264320D01*
X269602Y264867D01*
X268546Y265150D01*
D02*
G37*
G36*
X258546D02*
X257454D01*
X256398Y264867D01*
X255452Y264320D01*
X254679Y263548D01*
X254133Y262602D01*
X253850Y261546D01*
Y260454D01*
X254133Y259398D01*
X254679Y258452D01*
X255452Y257680D01*
X256398Y257133D01*
X257454Y256850D01*
X258546D01*
X259602Y257133D01*
X260548Y257680D01*
X261320Y258452D01*
X261867Y259398D01*
X262150Y260454D01*
Y261546D01*
X261867Y262602D01*
X261320Y263548D01*
X260548Y264320D01*
X259602Y264867D01*
X258546Y265150D01*
D02*
G37*
G36*
X248546D02*
X247454D01*
X246398Y264867D01*
X245452Y264320D01*
X244679Y263548D01*
X244133Y262602D01*
X243850Y261546D01*
Y260454D01*
X244133Y259398D01*
X244679Y258452D01*
X245452Y257680D01*
X246398Y257133D01*
X247454Y256850D01*
X248546D01*
X249602Y257133D01*
X250548Y257680D01*
X251321Y258452D01*
X251867Y259398D01*
X252150Y260454D01*
Y261546D01*
X251867Y262602D01*
X251321Y263548D01*
X250548Y264320D01*
X249602Y264867D01*
X248546Y265150D01*
D02*
G37*
G36*
X238546D02*
X237454D01*
X236398Y264867D01*
X235452Y264320D01*
X234680Y263548D01*
X234133Y262602D01*
X233850Y261546D01*
Y260454D01*
X234133Y259398D01*
X234680Y258452D01*
X235452Y257680D01*
X236398Y257133D01*
X237454Y256850D01*
X238546D01*
X239602Y257133D01*
X240548Y257680D01*
X241320Y258452D01*
X241867Y259398D01*
X242150Y260454D01*
Y261546D01*
X241867Y262602D01*
X241320Y263548D01*
X240548Y264320D01*
X239602Y264867D01*
X238546Y265150D01*
D02*
G37*
G36*
X228546D02*
X227454D01*
X226398Y264867D01*
X225452Y264320D01*
X224679Y263548D01*
X224133Y262602D01*
X223850Y261546D01*
Y260454D01*
X224133Y259398D01*
X224679Y258452D01*
X225452Y257680D01*
X226398Y257133D01*
X227454Y256850D01*
X228546D01*
X229602Y257133D01*
X230548Y257680D01*
X231321Y258452D01*
X231867Y259398D01*
X232150Y260454D01*
Y261546D01*
X231867Y262602D01*
X231321Y263548D01*
X230548Y264320D01*
X229602Y264867D01*
X228546Y265150D01*
D02*
G37*
G36*
X218546D02*
X217454D01*
X216398Y264867D01*
X215452Y264320D01*
X214680Y263548D01*
X214133Y262602D01*
X213850Y261546D01*
Y260454D01*
X214133Y259398D01*
X214680Y258452D01*
X215452Y257680D01*
X216398Y257133D01*
X217454Y256850D01*
X218546D01*
X219602Y257133D01*
X220548Y257680D01*
X221321Y258452D01*
X221867Y259398D01*
X222150Y260454D01*
Y261546D01*
X221867Y262602D01*
X221321Y263548D01*
X220548Y264320D01*
X219602Y264867D01*
X218546Y265150D01*
D02*
G37*
G36*
X208546D02*
X207454D01*
X206398Y264867D01*
X205452Y264320D01*
X204679Y263548D01*
X204133Y262602D01*
X203850Y261546D01*
Y260454D01*
X204133Y259398D01*
X204679Y258452D01*
X205452Y257680D01*
X206398Y257133D01*
X207454Y256850D01*
X208546D01*
X209602Y257133D01*
X210548Y257680D01*
X211320Y258452D01*
X211867Y259398D01*
X212150Y260454D01*
Y261546D01*
X211867Y262602D01*
X211320Y263548D01*
X210548Y264320D01*
X209602Y264867D01*
X208546Y265150D01*
D02*
G37*
G36*
X198546D02*
X197454D01*
X196398Y264867D01*
X195452Y264320D01*
X194679Y263548D01*
X194133Y262602D01*
X193850Y261546D01*
Y260454D01*
X194133Y259398D01*
X194679Y258452D01*
X195452Y257680D01*
X196398Y257133D01*
X197454Y256850D01*
X198546D01*
X199602Y257133D01*
X200548Y257680D01*
X201321Y258452D01*
X201867Y259398D01*
X202150Y260454D01*
Y261546D01*
X201867Y262602D01*
X201321Y263548D01*
X200548Y264320D01*
X199602Y264867D01*
X198546Y265150D01*
D02*
G37*
G36*
X188546D02*
X187454D01*
X186398Y264867D01*
X185452Y264320D01*
X184679Y263548D01*
X184133Y262602D01*
X183850Y261546D01*
Y260454D01*
X184133Y259398D01*
X184679Y258452D01*
X185452Y257680D01*
X186398Y257133D01*
X187454Y256850D01*
X188546D01*
X189602Y257133D01*
X190548Y257680D01*
X191321Y258452D01*
X191867Y259398D01*
X192150Y260454D01*
Y261546D01*
X191867Y262602D01*
X191321Y263548D01*
X190548Y264320D01*
X189602Y264867D01*
X188546Y265150D01*
D02*
G37*
G36*
X178546D02*
X177454D01*
X176398Y264867D01*
X175452Y264320D01*
X174680Y263548D01*
X174133Y262602D01*
X173850Y261546D01*
Y260454D01*
X174133Y259398D01*
X174680Y258452D01*
X175452Y257680D01*
X176398Y257133D01*
X177454Y256850D01*
X178546D01*
X179602Y257133D01*
X180548Y257680D01*
X181321Y258452D01*
X181867Y259398D01*
X182150Y260454D01*
Y261546D01*
X181867Y262602D01*
X181321Y263548D01*
X180548Y264320D01*
X179602Y264867D01*
X178546Y265150D01*
D02*
G37*
G36*
X168546D02*
X167454D01*
X166398Y264867D01*
X165452Y264320D01*
X164680Y263548D01*
X164133Y262602D01*
X163850Y261546D01*
Y260454D01*
X164133Y259398D01*
X164680Y258452D01*
X165452Y257680D01*
X166398Y257133D01*
X167454Y256850D01*
X168546D01*
X169602Y257133D01*
X170548Y257680D01*
X171320Y258452D01*
X171867Y259398D01*
X172150Y260454D01*
Y261546D01*
X171867Y262602D01*
X171320Y263548D01*
X170548Y264320D01*
X169602Y264867D01*
X168546Y265150D01*
D02*
G37*
G36*
X158546D02*
X157454D01*
X156398Y264867D01*
X155452Y264320D01*
X154680Y263548D01*
X154133Y262602D01*
X153850Y261546D01*
Y260454D01*
X154133Y259398D01*
X154680Y258452D01*
X155452Y257680D01*
X156398Y257133D01*
X157454Y256850D01*
X158546D01*
X159602Y257133D01*
X160548Y257680D01*
X161320Y258452D01*
X161867Y259398D01*
X162150Y260454D01*
Y261546D01*
X161867Y262602D01*
X161320Y263548D01*
X160548Y264320D01*
X159602Y264867D01*
X158546Y265150D01*
D02*
G37*
G36*
X148546D02*
X147454D01*
X146398Y264867D01*
X145452Y264320D01*
X144679Y263548D01*
X144133Y262602D01*
X143850Y261546D01*
Y260454D01*
X144133Y259398D01*
X144679Y258452D01*
X145452Y257680D01*
X146398Y257133D01*
X147454Y256850D01*
X148546D01*
X149602Y257133D01*
X150548Y257680D01*
X151321Y258452D01*
X151867Y259398D01*
X152150Y260454D01*
Y261546D01*
X151867Y262602D01*
X151321Y263548D01*
X150548Y264320D01*
X149602Y264867D01*
X148546Y265150D01*
D02*
G37*
G36*
X142150D02*
X133850D01*
Y256850D01*
X142150D01*
Y265150D01*
D02*
G37*
G36*
X122546D02*
X121454D01*
X120398Y264867D01*
X119452Y264320D01*
X118679Y263548D01*
X118133Y262602D01*
X117850Y261546D01*
Y260454D01*
X118133Y259398D01*
X118679Y258452D01*
X119452Y257680D01*
X120398Y257133D01*
X121454Y256850D01*
X122546D01*
X123602Y257133D01*
X124548Y257680D01*
X125320Y258452D01*
X125867Y259398D01*
X126150Y260454D01*
Y261546D01*
X125867Y262602D01*
X125320Y263548D01*
X124548Y264320D01*
X123602Y264867D01*
X122546Y265150D01*
D02*
G37*
G36*
X112546D02*
X111454D01*
X110398Y264867D01*
X109452Y264320D01*
X108679Y263548D01*
X108133Y262602D01*
X107850Y261546D01*
Y260454D01*
X108133Y259398D01*
X108679Y258452D01*
X109452Y257680D01*
X110398Y257133D01*
X111454Y256850D01*
X112546D01*
X113602Y257133D01*
X114548Y257680D01*
X115321Y258452D01*
X115867Y259398D01*
X116150Y260454D01*
Y261546D01*
X115867Y262602D01*
X115321Y263548D01*
X114548Y264320D01*
X113602Y264867D01*
X112546Y265150D01*
D02*
G37*
G36*
X102546D02*
X101454D01*
X100398Y264867D01*
X99452Y264320D01*
X98680Y263548D01*
X98133Y262602D01*
X97850Y261546D01*
Y260454D01*
X98133Y259398D01*
X98680Y258452D01*
X99452Y257680D01*
X100398Y257133D01*
X101454Y256850D01*
X102546D01*
X103602Y257133D01*
X104548Y257680D01*
X105321Y258452D01*
X105867Y259398D01*
X106150Y260454D01*
Y261546D01*
X105867Y262602D01*
X105321Y263548D01*
X104548Y264320D01*
X103602Y264867D01*
X102546Y265150D01*
D02*
G37*
G36*
X92546D02*
X91454D01*
X90398Y264867D01*
X89452Y264320D01*
X88679Y263548D01*
X88133Y262602D01*
X87850Y261546D01*
Y260454D01*
X88133Y259398D01*
X88679Y258452D01*
X89452Y257680D01*
X90398Y257133D01*
X91454Y256850D01*
X92546D01*
X93602Y257133D01*
X94548Y257680D01*
X95320Y258452D01*
X95867Y259398D01*
X96150Y260454D01*
Y261546D01*
X95867Y262602D01*
X95320Y263548D01*
X94548Y264320D01*
X93602Y264867D01*
X92546Y265150D01*
D02*
G37*
G36*
X82546D02*
X81454D01*
X80398Y264867D01*
X79452Y264320D01*
X78680Y263548D01*
X78133Y262602D01*
X77850Y261546D01*
Y260454D01*
X78133Y259398D01*
X78680Y258452D01*
X79452Y257680D01*
X80398Y257133D01*
X81454Y256850D01*
X82546D01*
X83602Y257133D01*
X84548Y257680D01*
X85321Y258452D01*
X85867Y259398D01*
X86150Y260454D01*
Y261546D01*
X85867Y262602D01*
X85321Y263548D01*
X84548Y264320D01*
X83602Y264867D01*
X82546Y265150D01*
D02*
G37*
G36*
X72546D02*
X71454D01*
X70398Y264867D01*
X69452Y264320D01*
X68679Y263548D01*
X68133Y262602D01*
X67850Y261546D01*
Y260454D01*
X68133Y259398D01*
X68679Y258452D01*
X69452Y257680D01*
X70398Y257133D01*
X71454Y256850D01*
X72546D01*
X73602Y257133D01*
X74548Y257680D01*
X75321Y258452D01*
X75867Y259398D01*
X76150Y260454D01*
Y261546D01*
X75867Y262602D01*
X75321Y263548D01*
X74548Y264320D01*
X73602Y264867D01*
X72546Y265150D01*
D02*
G37*
G36*
X62546D02*
X61454D01*
X60398Y264867D01*
X59452Y264320D01*
X58679Y263548D01*
X58133Y262602D01*
X57850Y261546D01*
Y260454D01*
X58133Y259398D01*
X58679Y258452D01*
X59452Y257680D01*
X60398Y257133D01*
X61454Y256850D01*
X62546D01*
X63602Y257133D01*
X64548Y257680D01*
X65320Y258452D01*
X65867Y259398D01*
X66150Y260454D01*
Y261546D01*
X65867Y262602D01*
X65320Y263548D01*
X64548Y264320D01*
X63602Y264867D01*
X62546Y265150D01*
D02*
G37*
G36*
X52546D02*
X51454D01*
X50398Y264867D01*
X49452Y264320D01*
X48680Y263548D01*
X48133Y262602D01*
X47850Y261546D01*
Y260454D01*
X48133Y259398D01*
X48680Y258452D01*
X49452Y257680D01*
X50398Y257133D01*
X51454Y256850D01*
X52546D01*
X53602Y257133D01*
X54548Y257680D01*
X55321Y258452D01*
X55867Y259398D01*
X56150Y260454D01*
Y261546D01*
X55867Y262602D01*
X55321Y263548D01*
X54548Y264320D01*
X53602Y264867D01*
X52546Y265150D01*
D02*
G37*
G36*
X42546D02*
X41454D01*
X40398Y264867D01*
X39452Y264320D01*
X38680Y263548D01*
X38133Y262602D01*
X37850Y261546D01*
Y260454D01*
X38133Y259398D01*
X38680Y258452D01*
X39452Y257680D01*
X40398Y257133D01*
X41454Y256850D01*
X42546D01*
X43602Y257133D01*
X44548Y257680D01*
X45320Y258452D01*
X45867Y259398D01*
X46150Y260454D01*
Y261546D01*
X45867Y262602D01*
X45320Y263548D01*
X44548Y264320D01*
X43602Y264867D01*
X42546Y265150D01*
D02*
G37*
G36*
X36150D02*
X27850D01*
Y256850D01*
X36150D01*
Y265150D01*
D02*
G37*
G36*
X10494Y247098D02*
X9505D01*
X8550Y246843D01*
X7694Y246348D01*
X6995Y245649D01*
X6500Y244792D01*
X6244Y243837D01*
Y242848D01*
X6500Y241893D01*
X6995Y241036D01*
X7694Y240337D01*
X8550Y239843D01*
X9505Y239587D01*
X10494D01*
X11450Y239843D01*
X12306Y240337D01*
X13005Y241036D01*
X13500Y241893D01*
X13756Y242848D01*
Y243837D01*
X13500Y244792D01*
X13005Y245649D01*
X12306Y246348D01*
X11450Y246843D01*
X10494Y247098D01*
D02*
G37*
G36*
Y237256D02*
X9505D01*
X8550Y237000D01*
X7694Y236506D01*
X6995Y235806D01*
X6500Y234950D01*
X6244Y233995D01*
Y233005D01*
X6500Y232050D01*
X6995Y231194D01*
X7694Y230494D01*
X8550Y230000D01*
X9505Y229744D01*
X10494D01*
X11450Y230000D01*
X12306Y230494D01*
X13005Y231194D01*
X13500Y232050D01*
X13756Y233005D01*
Y233995D01*
X13500Y234950D01*
X13005Y235806D01*
X12306Y236506D01*
X11450Y237000D01*
X10494Y237256D01*
D02*
G37*
G36*
Y227413D02*
X9505D01*
X8550Y227157D01*
X7694Y226663D01*
X6995Y225964D01*
X6500Y225107D01*
X6244Y224152D01*
Y223163D01*
X6500Y222208D01*
X6995Y221351D01*
X7694Y220652D01*
X8550Y220158D01*
X9505Y219901D01*
X10494D01*
X11450Y220158D01*
X12306Y220652D01*
X13005Y221351D01*
X13500Y222208D01*
X13756Y223163D01*
Y224152D01*
X13500Y225107D01*
X13005Y225964D01*
X12306Y226663D01*
X11450Y227157D01*
X10494Y227413D01*
D02*
G37*
G36*
X13756Y217571D02*
X6244D01*
Y210059D01*
X13756D01*
Y217571D01*
D02*
G37*
G36*
X209761Y190000D02*
X208839D01*
X207949Y189761D01*
X207151Y189301D01*
X206499Y188649D01*
X206038Y187851D01*
X205800Y186961D01*
Y186039D01*
X205985Y185348D01*
X190466Y169829D01*
X178759D01*
X178401Y170449D01*
X177749Y171101D01*
X176951Y171562D01*
X176061Y171800D01*
X175139D01*
X174249Y171562D01*
X173451Y171101D01*
X172799Y170449D01*
X172338Y169651D01*
X172100Y168761D01*
Y167839D01*
X172338Y166949D01*
X172799Y166151D01*
X173451Y165499D01*
X174249Y165039D01*
X175139Y164800D01*
X176061D01*
X176951Y165039D01*
X177749Y165499D01*
X178401Y166151D01*
X178759Y166771D01*
X180664D01*
X180729Y166271D01*
X179949Y166061D01*
X179151Y165601D01*
X178499Y164949D01*
X178039Y164151D01*
X177800Y163261D01*
Y162339D01*
X178039Y161449D01*
X178499Y160651D01*
X179151Y159999D01*
X179949Y159538D01*
X180839Y159300D01*
X181761D01*
X182651Y159538D01*
X183449Y159999D01*
X184101Y160651D01*
X184458Y161271D01*
X198700D01*
X199285Y161387D01*
X199781Y161719D01*
X204148Y166085D01*
X204839Y165900D01*
X205761D01*
X206651Y166139D01*
X207449Y166599D01*
X208101Y167251D01*
X208561Y168049D01*
X208800Y168939D01*
Y169861D01*
X208561Y170751D01*
X208101Y171549D01*
X207449Y172201D01*
X206651Y172661D01*
X205761Y172900D01*
X204839D01*
X203949Y172661D01*
X203151Y172201D01*
X202499Y171549D01*
X202039Y170751D01*
X201800Y169861D01*
Y168939D01*
X201985Y168248D01*
X198066Y164329D01*
X184458D01*
X184101Y164949D01*
X183449Y165601D01*
X182651Y166061D01*
X181870Y166271D01*
X181936Y166771D01*
X191100D01*
X191685Y166887D01*
X192181Y167219D01*
X208148Y183185D01*
X208839Y183000D01*
X209761D01*
X210651Y183238D01*
X211449Y183699D01*
X212101Y184351D01*
X212561Y185149D01*
X212800Y186039D01*
Y186961D01*
X212561Y187851D01*
X212101Y188649D01*
X211449Y189301D01*
X210651Y189761D01*
X209761Y190000D01*
D02*
G37*
G36*
X153843Y199029D02*
X148843D01*
X148258Y198913D01*
X147762Y198581D01*
X144473Y195293D01*
X144141Y194796D01*
X144025Y194211D01*
Y193188D01*
X142652Y191815D01*
X141961Y192000D01*
X141039D01*
X140149Y191762D01*
X139351Y191301D01*
X138699Y190649D01*
X138239Y189851D01*
X138000Y188961D01*
Y188039D01*
X138239Y187149D01*
X138699Y186351D01*
X139351Y185699D01*
X140149Y185239D01*
X141039Y185000D01*
X141961D01*
X142851Y185239D01*
X143649Y185699D01*
X144301Y186351D01*
X144762Y187149D01*
X145000Y188039D01*
Y188961D01*
X144815Y189652D01*
X146636Y191473D01*
X146681Y191540D01*
X147289Y191603D01*
X147506Y191395D01*
Y172095D01*
X147608Y171320D01*
X147907Y170598D01*
X148383Y169978D01*
X151803Y166558D01*
Y165269D01*
X151479Y165021D01*
X150688Y163990D01*
X150190Y162789D01*
X150020Y161500D01*
X150190Y160211D01*
X150688Y159010D01*
X151479Y157979D01*
X152020Y157437D01*
Y150902D01*
X151520Y150768D01*
X151301Y151149D01*
X150649Y151801D01*
X149851Y152261D01*
X148961Y152500D01*
X148039D01*
X147149Y152261D01*
X146351Y151801D01*
X145699Y151149D01*
X145238Y150351D01*
X145000Y149461D01*
Y148539D01*
X145238Y147649D01*
X145699Y146851D01*
X146351Y146199D01*
X146971Y145842D01*
Y73000D01*
X147087Y72415D01*
X147419Y71919D01*
X150185Y69152D01*
X150000Y68461D01*
Y67539D01*
X150239Y66649D01*
X150699Y65851D01*
X151351Y65199D01*
X152149Y64739D01*
X153039Y64500D01*
X153961D01*
X154851Y64739D01*
X155649Y65199D01*
X156301Y65851D01*
X156762Y66649D01*
X157000Y67539D01*
Y68461D01*
X156762Y69351D01*
X156301Y70149D01*
X155649Y70801D01*
X154851Y71262D01*
X153961Y71500D01*
X153039D01*
X152348Y71315D01*
X150029Y73633D01*
Y145842D01*
X150649Y146199D01*
X151301Y146851D01*
X151520Y147231D01*
X152020Y147098D01*
Y104000D01*
X152190Y102711D01*
X152688Y101510D01*
X153479Y100479D01*
X154510Y99687D01*
X155711Y99190D01*
X157000Y99020D01*
X158289Y99190D01*
X159490Y99687D01*
X160521Y100479D01*
X161312Y101510D01*
X161810Y102711D01*
X161980Y104000D01*
Y159500D01*
X161980Y159500D01*
X161810Y160789D01*
X161312Y161990D01*
X160521Y163021D01*
X160521Y163021D01*
X158521Y165021D01*
X157791Y165582D01*
Y166893D01*
X158253Y167084D01*
X200219Y125119D01*
X200715Y124787D01*
X201300Y124671D01*
X205441D01*
X205696Y124229D01*
X205459Y123729D01*
X181476D01*
X180279Y124927D01*
X180443Y125539D01*
Y126461D01*
X180204Y127351D01*
X179744Y128149D01*
X179092Y128801D01*
X178294Y129262D01*
X177404Y129500D01*
X176482D01*
X175592Y129262D01*
X174794Y128801D01*
X174142Y128149D01*
X173681Y127351D01*
X173443Y126461D01*
Y125539D01*
X173681Y124649D01*
X174142Y123851D01*
X174794Y123199D01*
X175592Y122739D01*
X176482Y122500D01*
X177404D01*
X178174Y122706D01*
X179762Y121119D01*
X180258Y120787D01*
X180843Y120671D01*
X287200D01*
X287785Y120787D01*
X288281Y121119D01*
X295348Y128185D01*
X296039Y128000D01*
X296961D01*
X297851Y128238D01*
X298649Y128699D01*
X299301Y129351D01*
X299762Y130149D01*
X300000Y131039D01*
Y131961D01*
X299762Y132851D01*
X299301Y133649D01*
X298649Y134301D01*
X297851Y134762D01*
X296961Y135000D01*
X296039D01*
X295149Y134762D01*
X294351Y134301D01*
X293699Y133649D01*
X293238Y132851D01*
X293000Y131961D01*
Y131039D01*
X293185Y130348D01*
X286566Y123729D01*
X211740D01*
X211504Y124229D01*
X211861Y124849D01*
X212100Y125739D01*
Y126661D01*
X211861Y127551D01*
X211401Y128349D01*
X210749Y129001D01*
X209951Y129462D01*
X209061Y129700D01*
X208139D01*
X207249Y129462D01*
X206451Y129001D01*
X205799Y128349D01*
X205441Y127729D01*
X201934D01*
X159029Y170633D01*
Y182152D01*
X159351Y182238D01*
X160149Y182699D01*
X160801Y183351D01*
X161261Y184149D01*
X161500Y185039D01*
Y185961D01*
X161261Y186851D01*
X160801Y187649D01*
X160149Y188301D01*
X159351Y188761D01*
X158461Y189000D01*
X157539D01*
X156649Y188761D01*
X155851Y188301D01*
X155199Y187649D01*
X154738Y186851D01*
X154500Y185961D01*
Y185039D01*
X154738Y184149D01*
X155199Y183351D01*
X155851Y182699D01*
X155971Y182630D01*
Y171512D01*
X155509Y171320D01*
X153494Y173335D01*
Y191686D01*
X153761Y192149D01*
X154000Y193039D01*
Y193961D01*
X153813Y194661D01*
X154261Y194920D01*
X162546Y186634D01*
X162500Y186461D01*
Y185539D01*
X162739Y184649D01*
X163199Y183851D01*
X163851Y183199D01*
X164649Y182738D01*
X165539Y182500D01*
X166461D01*
X167351Y182738D01*
X168149Y183199D01*
X168801Y183851D01*
X169262Y184649D01*
X169500Y185539D01*
Y186461D01*
X169262Y187351D01*
X168801Y188149D01*
X168149Y188801D01*
X167351Y189261D01*
X166461Y189500D01*
X165539D01*
X164649Y189261D01*
X164393Y189113D01*
X154925Y198581D01*
X154428Y198913D01*
X153843Y199029D01*
D02*
G37*
G36*
X52461Y240500D02*
X51539D01*
X50649Y240262D01*
X49851Y239801D01*
X49199Y239149D01*
X48739Y238351D01*
X48500Y237461D01*
Y236539D01*
X48739Y235649D01*
X49199Y234851D01*
X49851Y234199D01*
X50571Y233784D01*
Y233000D01*
X50687Y232415D01*
X51019Y231919D01*
X108585Y174352D01*
X108400Y173661D01*
Y172739D01*
X108639Y171849D01*
X109099Y171051D01*
X109751Y170399D01*
X110549Y169939D01*
X111439Y169700D01*
X112361D01*
X113251Y169939D01*
X114049Y170399D01*
X114701Y171051D01*
X115162Y171849D01*
X115400Y172739D01*
Y173661D01*
X115162Y174551D01*
X114701Y175349D01*
X114049Y176001D01*
X113251Y176462D01*
X112361Y176700D01*
X111439D01*
X110748Y176515D01*
X53806Y233457D01*
X53866Y234036D01*
X54149Y234199D01*
X54801Y234851D01*
X55261Y235649D01*
X55500Y236539D01*
Y237461D01*
X55261Y238351D01*
X54801Y239149D01*
X54149Y239801D01*
X53351Y240262D01*
X52461Y240500D01*
D02*
G37*
G36*
X56222Y175488D02*
X54777D01*
X53382Y175114D01*
X52130Y174392D01*
X51108Y173370D01*
X50386Y172118D01*
X50012Y170722D01*
Y169278D01*
X50386Y167882D01*
X51108Y166630D01*
X52130Y165608D01*
X53382Y164886D01*
X54777Y164512D01*
X56222D01*
X57618Y164886D01*
X58870Y165608D01*
X59892Y166630D01*
X60614Y167882D01*
X60988Y169278D01*
Y170722D01*
X60614Y172118D01*
X59892Y173370D01*
X58870Y174392D01*
X57618Y175114D01*
X56222Y175488D01*
D02*
G37*
G36*
X16222D02*
X14777D01*
X13382Y175114D01*
X12130Y174392D01*
X11108Y173370D01*
X10386Y172118D01*
X10012Y170722D01*
Y169278D01*
X10386Y167882D01*
X11108Y166630D01*
X12130Y165608D01*
X13382Y164886D01*
X14777Y164512D01*
X16222D01*
X17618Y164886D01*
X18870Y165608D01*
X19892Y166630D01*
X20614Y167882D01*
X20988Y169278D01*
Y170722D01*
X20614Y172118D01*
X19892Y173370D01*
X18870Y174392D01*
X17618Y175114D01*
X16222Y175488D01*
D02*
G37*
G36*
X120061Y189500D02*
X119139D01*
X118249Y189261D01*
X117451Y188801D01*
X116799Y188149D01*
X116339Y187351D01*
X116100Y186461D01*
Y185539D01*
X116339Y184649D01*
X116799Y183851D01*
X117451Y183199D01*
X118071Y182842D01*
Y168633D01*
X111374Y161937D01*
X110683Y162123D01*
X109762D01*
X108872Y161884D01*
X108074Y161423D01*
X107422Y160772D01*
X106961Y159974D01*
X106723Y159083D01*
Y158162D01*
X106961Y157272D01*
X107422Y156474D01*
X108074Y155822D01*
X108872Y155361D01*
X109762Y155123D01*
X110683D01*
X111574Y155361D01*
X112372Y155822D01*
X113023Y156474D01*
X113484Y157272D01*
X113723Y158162D01*
Y159083D01*
X113537Y159774D01*
X120681Y166919D01*
X121013Y167415D01*
X121129Y168000D01*
Y182842D01*
X121749Y183199D01*
X122401Y183851D01*
X122862Y184649D01*
X123100Y185539D01*
Y186461D01*
X122862Y187351D01*
X122401Y188149D01*
X121749Y188801D01*
X120951Y189261D01*
X120061Y189500D01*
D02*
G37*
G36*
X377598Y162043D02*
X376402D01*
X375246Y161734D01*
X374210Y161135D01*
X373364Y160290D01*
X372766Y159254D01*
X372457Y158098D01*
Y156902D01*
X372766Y155746D01*
X373364Y154710D01*
X374210Y153865D01*
X375246Y153266D01*
X376402Y152957D01*
X377598D01*
X378754Y153266D01*
X379790Y153865D01*
X380635Y154710D01*
X381234Y155746D01*
X381543Y156902D01*
Y158098D01*
X381234Y159254D01*
X380635Y160290D01*
X379790Y161135D01*
X378754Y161734D01*
X377598Y162043D01*
D02*
G37*
G36*
X134961Y152500D02*
X134039D01*
X133149Y152261D01*
X132351Y151801D01*
X131699Y151149D01*
X131238Y150351D01*
X131000Y149461D01*
Y148539D01*
X131185Y147848D01*
X126919Y143581D01*
X126587Y143085D01*
X126471Y142500D01*
Y94886D01*
X126398Y94867D01*
X125452Y94320D01*
X124680Y93548D01*
X124133Y92602D01*
X123850Y91546D01*
Y90454D01*
X124133Y89398D01*
X124680Y88452D01*
X125452Y87679D01*
X126398Y87133D01*
X127454Y86850D01*
X128546D01*
X129602Y87133D01*
X130548Y87679D01*
X131321Y88452D01*
X131867Y89398D01*
X132150Y90454D01*
Y91546D01*
X131867Y92602D01*
X131321Y93548D01*
X130548Y94320D01*
X129602Y94867D01*
X129529Y94886D01*
Y141867D01*
X133348Y145685D01*
X134039Y145500D01*
X134961D01*
X135851Y145738D01*
X136649Y146199D01*
X137301Y146851D01*
X137761Y147649D01*
X138000Y148539D01*
Y149461D01*
X137761Y150351D01*
X137301Y151149D01*
X136649Y151801D01*
X135851Y152261D01*
X134961Y152500D01*
D02*
G37*
G36*
X60988Y135488D02*
X50012D01*
Y124512D01*
X60988D01*
Y135488D01*
D02*
G37*
G36*
X16222D02*
X14777D01*
X13382Y135114D01*
X12130Y134392D01*
X11108Y133370D01*
X10386Y132118D01*
X10012Y130722D01*
Y129278D01*
X10386Y127882D01*
X11108Y126630D01*
X12130Y125608D01*
X13382Y124886D01*
X14777Y124512D01*
X16222D01*
X17618Y124886D01*
X18870Y125608D01*
X19892Y126630D01*
X20614Y127882D01*
X20988Y129278D01*
Y130722D01*
X20614Y132118D01*
X19892Y133370D01*
X18870Y134392D01*
X17618Y135114D01*
X16222Y135488D01*
D02*
G37*
G36*
X298546Y95150D02*
X297454D01*
X296398Y94867D01*
X295452Y94320D01*
X294679Y93548D01*
X294133Y92602D01*
X293850Y91546D01*
Y90454D01*
X294133Y89398D01*
X294679Y88452D01*
X295452Y87679D01*
X296398Y87133D01*
X297454Y86850D01*
X298546D01*
X299602Y87133D01*
X300548Y87679D01*
X301321Y88452D01*
X301867Y89398D01*
X302150Y90454D01*
Y91546D01*
X301867Y92602D01*
X301321Y93548D01*
X300548Y94320D01*
X299602Y94867D01*
X298546Y95150D01*
D02*
G37*
G36*
X288546D02*
X287454D01*
X286398Y94867D01*
X285452Y94320D01*
X284680Y93548D01*
X284133Y92602D01*
X283850Y91546D01*
Y90454D01*
X284133Y89398D01*
X284680Y88452D01*
X285452Y87679D01*
X286398Y87133D01*
X287454Y86850D01*
X288546D01*
X289602Y87133D01*
X290548Y87679D01*
X291320Y88452D01*
X291867Y89398D01*
X292150Y90454D01*
Y91546D01*
X291867Y92602D01*
X291320Y93548D01*
X290548Y94320D01*
X289602Y94867D01*
X288546Y95150D01*
D02*
G37*
G36*
X278546D02*
X277454D01*
X276398Y94867D01*
X275452Y94320D01*
X274679Y93548D01*
X274133Y92602D01*
X273850Y91546D01*
Y90454D01*
X274133Y89398D01*
X274679Y88452D01*
X275452Y87679D01*
X276398Y87133D01*
X277454Y86850D01*
X278546D01*
X279602Y87133D01*
X280548Y87679D01*
X281321Y88452D01*
X281867Y89398D01*
X282150Y90454D01*
Y91546D01*
X281867Y92602D01*
X281321Y93548D01*
X280548Y94320D01*
X279602Y94867D01*
X278546Y95150D01*
D02*
G37*
G36*
X268546D02*
X267454D01*
X266398Y94867D01*
X265452Y94320D01*
X264680Y93548D01*
X264133Y92602D01*
X263850Y91546D01*
Y90454D01*
X264133Y89398D01*
X264680Y88452D01*
X265452Y87679D01*
X266398Y87133D01*
X267454Y86850D01*
X268546D01*
X269602Y87133D01*
X270548Y87679D01*
X271321Y88452D01*
X271867Y89398D01*
X272150Y90454D01*
Y91546D01*
X271867Y92602D01*
X271321Y93548D01*
X270548Y94320D01*
X269602Y94867D01*
X268546Y95150D01*
D02*
G37*
G36*
X258546D02*
X257454D01*
X256398Y94867D01*
X255452Y94320D01*
X254679Y93548D01*
X254133Y92602D01*
X253850Y91546D01*
Y90454D01*
X254133Y89398D01*
X254679Y88452D01*
X255452Y87679D01*
X256398Y87133D01*
X257454Y86850D01*
X258546D01*
X259602Y87133D01*
X260548Y87679D01*
X261320Y88452D01*
X261867Y89398D01*
X262150Y90454D01*
Y91546D01*
X261867Y92602D01*
X261320Y93548D01*
X260548Y94320D01*
X259602Y94867D01*
X258546Y95150D01*
D02*
G37*
G36*
X248546D02*
X247454D01*
X246398Y94867D01*
X245452Y94320D01*
X244679Y93548D01*
X244133Y92602D01*
X243850Y91546D01*
Y90454D01*
X244133Y89398D01*
X244679Y88452D01*
X245452Y87679D01*
X246398Y87133D01*
X247454Y86850D01*
X248546D01*
X249602Y87133D01*
X250548Y87679D01*
X251321Y88452D01*
X251867Y89398D01*
X252150Y90454D01*
Y91546D01*
X251867Y92602D01*
X251321Y93548D01*
X250548Y94320D01*
X249602Y94867D01*
X248546Y95150D01*
D02*
G37*
G36*
X238546D02*
X237454D01*
X236398Y94867D01*
X235452Y94320D01*
X234680Y93548D01*
X234133Y92602D01*
X233850Y91546D01*
Y90454D01*
X234133Y89398D01*
X234680Y88452D01*
X235452Y87679D01*
X236398Y87133D01*
X237454Y86850D01*
X238546D01*
X239602Y87133D01*
X240548Y87679D01*
X241320Y88452D01*
X241867Y89398D01*
X242150Y90454D01*
Y91546D01*
X241867Y92602D01*
X241320Y93548D01*
X240548Y94320D01*
X239602Y94867D01*
X238546Y95150D01*
D02*
G37*
G36*
X228546D02*
X227454D01*
X226398Y94867D01*
X225452Y94320D01*
X224679Y93548D01*
X224133Y92602D01*
X223850Y91546D01*
Y90454D01*
X224133Y89398D01*
X224679Y88452D01*
X225452Y87679D01*
X226398Y87133D01*
X227454Y86850D01*
X228546D01*
X229602Y87133D01*
X230548Y87679D01*
X231321Y88452D01*
X231867Y89398D01*
X232150Y90454D01*
Y91546D01*
X231867Y92602D01*
X231321Y93548D01*
X230548Y94320D01*
X229602Y94867D01*
X228546Y95150D01*
D02*
G37*
G36*
X218546D02*
X217454D01*
X216398Y94867D01*
X215452Y94320D01*
X214680Y93548D01*
X214133Y92602D01*
X213850Y91546D01*
Y90454D01*
X214133Y89398D01*
X214680Y88452D01*
X215452Y87679D01*
X216398Y87133D01*
X217454Y86850D01*
X218546D01*
X219602Y87133D01*
X220548Y87679D01*
X221321Y88452D01*
X221867Y89398D01*
X222150Y90454D01*
Y91546D01*
X221867Y92602D01*
X221321Y93548D01*
X220548Y94320D01*
X219602Y94867D01*
X218546Y95150D01*
D02*
G37*
G36*
X208546D02*
X207454D01*
X206398Y94867D01*
X205452Y94320D01*
X204679Y93548D01*
X204133Y92602D01*
X203850Y91546D01*
Y90454D01*
X204133Y89398D01*
X204679Y88452D01*
X205452Y87679D01*
X206398Y87133D01*
X207454Y86850D01*
X208546D01*
X209602Y87133D01*
X210548Y87679D01*
X211320Y88452D01*
X211867Y89398D01*
X212150Y90454D01*
Y91546D01*
X211867Y92602D01*
X211320Y93548D01*
X210548Y94320D01*
X209602Y94867D01*
X208546Y95150D01*
D02*
G37*
G36*
X198546D02*
X197454D01*
X196398Y94867D01*
X195452Y94320D01*
X194679Y93548D01*
X194133Y92602D01*
X193850Y91546D01*
Y90454D01*
X194133Y89398D01*
X194679Y88452D01*
X195452Y87679D01*
X196398Y87133D01*
X197454Y86850D01*
X198546D01*
X199602Y87133D01*
X200548Y87679D01*
X201321Y88452D01*
X201867Y89398D01*
X202150Y90454D01*
Y91546D01*
X201867Y92602D01*
X201321Y93548D01*
X200548Y94320D01*
X199602Y94867D01*
X198546Y95150D01*
D02*
G37*
G36*
X188546D02*
X187454D01*
X186398Y94867D01*
X185452Y94320D01*
X184679Y93548D01*
X184133Y92602D01*
X183850Y91546D01*
Y90454D01*
X184133Y89398D01*
X184679Y88452D01*
X185452Y87679D01*
X186398Y87133D01*
X187454Y86850D01*
X188546D01*
X189602Y87133D01*
X190548Y87679D01*
X191321Y88452D01*
X191867Y89398D01*
X192150Y90454D01*
Y91546D01*
X191867Y92602D01*
X191321Y93548D01*
X190548Y94320D01*
X189602Y94867D01*
X188546Y95150D01*
D02*
G37*
G36*
X178546D02*
X177454D01*
X176398Y94867D01*
X175452Y94320D01*
X174680Y93548D01*
X174133Y92602D01*
X173850Y91546D01*
Y90454D01*
X174133Y89398D01*
X174680Y88452D01*
X175452Y87679D01*
X176398Y87133D01*
X177454Y86850D01*
X178546D01*
X179602Y87133D01*
X180548Y87679D01*
X181321Y88452D01*
X181867Y89398D01*
X182150Y90454D01*
Y91546D01*
X181867Y92602D01*
X181321Y93548D01*
X180548Y94320D01*
X179602Y94867D01*
X178546Y95150D01*
D02*
G37*
G36*
X168546D02*
X167454D01*
X166398Y94867D01*
X165452Y94320D01*
X164680Y93548D01*
X164133Y92602D01*
X163850Y91546D01*
Y90454D01*
X164133Y89398D01*
X164680Y88452D01*
X165452Y87679D01*
X166398Y87133D01*
X167454Y86850D01*
X168546D01*
X169602Y87133D01*
X170548Y87679D01*
X171320Y88452D01*
X171867Y89398D01*
X172150Y90454D01*
Y91546D01*
X171867Y92602D01*
X171320Y93548D01*
X170548Y94320D01*
X169602Y94867D01*
X168546Y95150D01*
D02*
G37*
G36*
X158546D02*
X157454D01*
X156398Y94867D01*
X155452Y94320D01*
X154680Y93548D01*
X154133Y92602D01*
X153850Y91546D01*
Y90454D01*
X154133Y89398D01*
X154680Y88452D01*
X155452Y87679D01*
X156398Y87133D01*
X157454Y86850D01*
X158546D01*
X159602Y87133D01*
X160548Y87679D01*
X161320Y88452D01*
X161867Y89398D01*
X162150Y90454D01*
Y91546D01*
X161867Y92602D01*
X161320Y93548D01*
X160548Y94320D01*
X159602Y94867D01*
X158546Y95150D01*
D02*
G37*
G36*
X138546D02*
X137454D01*
X136398Y94867D01*
X135452Y94320D01*
X134679Y93548D01*
X134133Y92602D01*
X133850Y91546D01*
Y90454D01*
X134133Y89398D01*
X134679Y88452D01*
X135452Y87679D01*
X136398Y87133D01*
X137454Y86850D01*
X138546D01*
X139602Y87133D01*
X140548Y87679D01*
X141321Y88452D01*
X141867Y89398D01*
X142150Y90454D01*
Y91546D01*
X141867Y92602D01*
X141321Y93548D01*
X140548Y94320D01*
X139602Y94867D01*
X138546Y95150D01*
D02*
G37*
G36*
X118546D02*
X117454D01*
X116398Y94867D01*
X115452Y94320D01*
X114680Y93548D01*
X114133Y92602D01*
X113850Y91546D01*
Y90454D01*
X114133Y89398D01*
X114680Y88452D01*
X115452Y87679D01*
X116398Y87133D01*
X117454Y86850D01*
X118546D01*
X119602Y87133D01*
X120548Y87679D01*
X121320Y88452D01*
X121867Y89398D01*
X122150Y90454D01*
Y91546D01*
X121867Y92602D01*
X121320Y93548D01*
X120548Y94320D01*
X119602Y94867D01*
X118546Y95150D01*
D02*
G37*
G36*
X108546D02*
X107454D01*
X106398Y94867D01*
X105452Y94320D01*
X104680Y93548D01*
X104133Y92602D01*
X103850Y91546D01*
Y90454D01*
X104133Y89398D01*
X104680Y88452D01*
X105452Y87679D01*
X106398Y87133D01*
X107454Y86850D01*
X108546D01*
X109602Y87133D01*
X110548Y87679D01*
X111320Y88452D01*
X111867Y89398D01*
X112150Y90454D01*
Y91546D01*
X111867Y92602D01*
X111320Y93548D01*
X110548Y94320D01*
X109602Y94867D01*
X108546Y95150D01*
D02*
G37*
G36*
X98546D02*
X97454D01*
X96398Y94867D01*
X95452Y94320D01*
X94679Y93548D01*
X94133Y92602D01*
X93850Y91546D01*
Y90454D01*
X94133Y89398D01*
X94679Y88452D01*
X95452Y87679D01*
X96398Y87133D01*
X97454Y86850D01*
X98546D01*
X99602Y87133D01*
X100548Y87679D01*
X101321Y88452D01*
X101867Y89398D01*
X102150Y90454D01*
Y91546D01*
X101867Y92602D01*
X101321Y93548D01*
X100548Y94320D01*
X99602Y94867D01*
X98546Y95150D01*
D02*
G37*
G36*
X88546D02*
X87454D01*
X86398Y94867D01*
X85452Y94320D01*
X84680Y93548D01*
X84133Y92602D01*
X83850Y91546D01*
Y90454D01*
X84133Y89398D01*
X84680Y88452D01*
X85452Y87679D01*
X86398Y87133D01*
X87454Y86850D01*
X88546D01*
X89602Y87133D01*
X90548Y87679D01*
X91321Y88452D01*
X91867Y89398D01*
X92150Y90454D01*
Y91546D01*
X91867Y92602D01*
X91321Y93548D01*
X90548Y94320D01*
X89602Y94867D01*
X88546Y95150D01*
D02*
G37*
G36*
X78546D02*
X77454D01*
X76398Y94867D01*
X75452Y94320D01*
X74679Y93548D01*
X74133Y92602D01*
X73850Y91546D01*
Y90454D01*
X74133Y89398D01*
X74679Y88452D01*
X75452Y87679D01*
X76398Y87133D01*
X77454Y86850D01*
X78546D01*
X79602Y87133D01*
X80548Y87679D01*
X81321Y88452D01*
X81867Y89398D01*
X82150Y90454D01*
Y91546D01*
X81867Y92602D01*
X81321Y93548D01*
X80548Y94320D01*
X79602Y94867D01*
X78546Y95150D01*
D02*
G37*
G36*
X68546D02*
X67454D01*
X66398Y94867D01*
X65452Y94320D01*
X64679Y93548D01*
X64133Y92602D01*
X63850Y91546D01*
Y90454D01*
X64133Y89398D01*
X64679Y88452D01*
X65452Y87679D01*
X66398Y87133D01*
X67454Y86850D01*
X68546D01*
X69602Y87133D01*
X70548Y87679D01*
X71320Y88452D01*
X71867Y89398D01*
X72150Y90454D01*
Y91546D01*
X71867Y92602D01*
X71320Y93548D01*
X70548Y94320D01*
X69602Y94867D01*
X68546Y95150D01*
D02*
G37*
G36*
X337961Y160700D02*
X337039D01*
X336149Y160461D01*
X335351Y160001D01*
X334699Y159349D01*
X334239Y158551D01*
X334000Y157661D01*
Y156739D01*
X334239Y155849D01*
X334699Y155051D01*
X335351Y154399D01*
X335971Y154042D01*
Y133000D01*
X336087Y132415D01*
X336419Y131919D01*
X340671Y127666D01*
Y84633D01*
X333867Y77829D01*
X301351D01*
X301160Y78291D01*
X301321Y78452D01*
X301867Y79398D01*
X302150Y80454D01*
Y81546D01*
X301867Y82602D01*
X301321Y83548D01*
X300548Y84320D01*
X299602Y84867D01*
X298546Y85150D01*
X297454D01*
X296398Y84867D01*
X295452Y84320D01*
X294679Y83548D01*
X294133Y82602D01*
X293850Y81546D01*
Y80454D01*
X294133Y79398D01*
X294679Y78452D01*
X294840Y78291D01*
X294649Y77829D01*
X293334D01*
X291829Y79334D01*
X291867Y79398D01*
X292150Y80454D01*
Y81546D01*
X291867Y82602D01*
X291320Y83548D01*
X290548Y84320D01*
X289602Y84867D01*
X288546Y85150D01*
X287454D01*
X286398Y84867D01*
X285452Y84320D01*
X284680Y83548D01*
X284133Y82602D01*
X283850Y81546D01*
Y80454D01*
X284133Y79398D01*
X284680Y78452D01*
X285452Y77680D01*
X286398Y77133D01*
X287454Y76850D01*
X288546D01*
X289602Y77133D01*
X289667Y77171D01*
X291619Y75219D01*
X292115Y74887D01*
X292700Y74771D01*
X334500D01*
X335085Y74887D01*
X335581Y75219D01*
X343281Y82919D01*
X343613Y83415D01*
X343729Y84000D01*
Y128300D01*
X343613Y128885D01*
X343281Y129381D01*
X339029Y133633D01*
Y154042D01*
X339649Y154399D01*
X340301Y155051D01*
X340761Y155849D01*
X341000Y156739D01*
Y157661D01*
X340761Y158551D01*
X340301Y159349D01*
X339649Y160001D01*
X338851Y160461D01*
X337961Y160700D01*
D02*
G37*
G36*
X278546Y85150D02*
X277454D01*
X276398Y84867D01*
X275452Y84320D01*
X274679Y83548D01*
X274133Y82602D01*
X273850Y81546D01*
Y80454D01*
X274133Y79398D01*
X274679Y78452D01*
X275452Y77680D01*
X276398Y77133D01*
X277454Y76850D01*
X278546D01*
X279602Y77133D01*
X280548Y77680D01*
X281321Y78452D01*
X281867Y79398D01*
X282150Y80454D01*
Y81546D01*
X281867Y82602D01*
X281321Y83548D01*
X280548Y84320D01*
X279602Y84867D01*
X278546Y85150D01*
D02*
G37*
G36*
X268546D02*
X267454D01*
X266398Y84867D01*
X265452Y84320D01*
X264680Y83548D01*
X264133Y82602D01*
X263850Y81546D01*
Y80454D01*
X264133Y79398D01*
X264680Y78452D01*
X265452Y77680D01*
X266398Y77133D01*
X267454Y76850D01*
X268546D01*
X269602Y77133D01*
X270548Y77680D01*
X271321Y78452D01*
X271867Y79398D01*
X272150Y80454D01*
Y81546D01*
X271867Y82602D01*
X271321Y83548D01*
X270548Y84320D01*
X269602Y84867D01*
X268546Y85150D01*
D02*
G37*
G36*
X258546D02*
X257454D01*
X256398Y84867D01*
X255452Y84320D01*
X254679Y83548D01*
X254133Y82602D01*
X253850Y81546D01*
Y80454D01*
X254133Y79398D01*
X254679Y78452D01*
X255452Y77680D01*
X256398Y77133D01*
X257454Y76850D01*
X258546D01*
X259602Y77133D01*
X260548Y77680D01*
X261320Y78452D01*
X261867Y79398D01*
X262150Y80454D01*
Y81546D01*
X261867Y82602D01*
X261320Y83548D01*
X260548Y84320D01*
X259602Y84867D01*
X258546Y85150D01*
D02*
G37*
G36*
X248546D02*
X247454D01*
X246398Y84867D01*
X245452Y84320D01*
X244679Y83548D01*
X244133Y82602D01*
X243850Y81546D01*
Y80454D01*
X244133Y79398D01*
X244679Y78452D01*
X245452Y77680D01*
X246398Y77133D01*
X247454Y76850D01*
X248546D01*
X249602Y77133D01*
X250548Y77680D01*
X251321Y78452D01*
X251867Y79398D01*
X252150Y80454D01*
Y81546D01*
X251867Y82602D01*
X251321Y83548D01*
X250548Y84320D01*
X249602Y84867D01*
X248546Y85150D01*
D02*
G37*
G36*
X238546D02*
X237454D01*
X236398Y84867D01*
X235452Y84320D01*
X234680Y83548D01*
X234133Y82602D01*
X233850Y81546D01*
Y80454D01*
X234133Y79398D01*
X234680Y78452D01*
X235452Y77680D01*
X236398Y77133D01*
X237454Y76850D01*
X238546D01*
X239602Y77133D01*
X240548Y77680D01*
X241320Y78452D01*
X241867Y79398D01*
X242150Y80454D01*
Y81546D01*
X241867Y82602D01*
X241320Y83548D01*
X240548Y84320D01*
X239602Y84867D01*
X238546Y85150D01*
D02*
G37*
G36*
X228546D02*
X227454D01*
X226398Y84867D01*
X225452Y84320D01*
X224679Y83548D01*
X224133Y82602D01*
X223850Y81546D01*
Y80454D01*
X224133Y79398D01*
X224679Y78452D01*
X225452Y77680D01*
X226398Y77133D01*
X227454Y76850D01*
X228546D01*
X229602Y77133D01*
X230548Y77680D01*
X231321Y78452D01*
X231867Y79398D01*
X232150Y80454D01*
Y81546D01*
X231867Y82602D01*
X231321Y83548D01*
X230548Y84320D01*
X229602Y84867D01*
X228546Y85150D01*
D02*
G37*
G36*
X218546D02*
X217454D01*
X216398Y84867D01*
X215452Y84320D01*
X214680Y83548D01*
X214133Y82602D01*
X213850Y81546D01*
Y80454D01*
X214133Y79398D01*
X214680Y78452D01*
X215452Y77680D01*
X216398Y77133D01*
X217454Y76850D01*
X218546D01*
X219602Y77133D01*
X220548Y77680D01*
X221321Y78452D01*
X221867Y79398D01*
X222150Y80454D01*
Y81546D01*
X221867Y82602D01*
X221321Y83548D01*
X220548Y84320D01*
X219602Y84867D01*
X218546Y85150D01*
D02*
G37*
G36*
X208546D02*
X207454D01*
X206398Y84867D01*
X205452Y84320D01*
X204679Y83548D01*
X204133Y82602D01*
X203850Y81546D01*
Y80454D01*
X204133Y79398D01*
X204679Y78452D01*
X205452Y77680D01*
X206398Y77133D01*
X207454Y76850D01*
X208546D01*
X209602Y77133D01*
X210548Y77680D01*
X211320Y78452D01*
X211867Y79398D01*
X212150Y80454D01*
Y81546D01*
X211867Y82602D01*
X211320Y83548D01*
X210548Y84320D01*
X209602Y84867D01*
X208546Y85150D01*
D02*
G37*
G36*
X198546D02*
X197454D01*
X196398Y84867D01*
X195452Y84320D01*
X194679Y83548D01*
X194133Y82602D01*
X193850Y81546D01*
Y80454D01*
X194133Y79398D01*
X194679Y78452D01*
X195452Y77680D01*
X196398Y77133D01*
X197454Y76850D01*
X198546D01*
X199602Y77133D01*
X200548Y77680D01*
X201321Y78452D01*
X201867Y79398D01*
X202150Y80454D01*
Y81546D01*
X201867Y82602D01*
X201321Y83548D01*
X200548Y84320D01*
X199602Y84867D01*
X198546Y85150D01*
D02*
G37*
G36*
X188546D02*
X187454D01*
X186398Y84867D01*
X185452Y84320D01*
X184679Y83548D01*
X184133Y82602D01*
X183850Y81546D01*
Y80454D01*
X184133Y79398D01*
X184679Y78452D01*
X185452Y77680D01*
X186398Y77133D01*
X187454Y76850D01*
X188546D01*
X189602Y77133D01*
X190548Y77680D01*
X191321Y78452D01*
X191867Y79398D01*
X192150Y80454D01*
Y81546D01*
X191867Y82602D01*
X191321Y83548D01*
X190548Y84320D01*
X189602Y84867D01*
X188546Y85150D01*
D02*
G37*
G36*
X178546D02*
X177454D01*
X176398Y84867D01*
X175452Y84320D01*
X174680Y83548D01*
X174133Y82602D01*
X173850Y81546D01*
Y80454D01*
X174133Y79398D01*
X174680Y78452D01*
X175452Y77680D01*
X176398Y77133D01*
X177454Y76850D01*
X178546D01*
X179602Y77133D01*
X180548Y77680D01*
X181321Y78452D01*
X181867Y79398D01*
X182150Y80454D01*
Y81546D01*
X181867Y82602D01*
X181321Y83548D01*
X180548Y84320D01*
X179602Y84867D01*
X178546Y85150D01*
D02*
G37*
G36*
X168546D02*
X167454D01*
X166398Y84867D01*
X165452Y84320D01*
X164680Y83548D01*
X164133Y82602D01*
X163850Y81546D01*
Y80454D01*
X164133Y79398D01*
X164680Y78452D01*
X165452Y77680D01*
X166398Y77133D01*
X167454Y76850D01*
X168546D01*
X169602Y77133D01*
X170548Y77680D01*
X171320Y78452D01*
X171867Y79398D01*
X172150Y80454D01*
Y81546D01*
X171867Y82602D01*
X171320Y83548D01*
X170548Y84320D01*
X169602Y84867D01*
X168546Y85150D01*
D02*
G37*
G36*
X162150D02*
X153850D01*
Y76850D01*
X162150D01*
Y85150D01*
D02*
G37*
G36*
X138546D02*
X137454D01*
X136398Y84867D01*
X135452Y84320D01*
X134679Y83548D01*
X134133Y82602D01*
X133850Y81546D01*
Y80454D01*
X134133Y79398D01*
X134679Y78452D01*
X135452Y77680D01*
X136398Y77133D01*
X137454Y76850D01*
X138546D01*
X139602Y77133D01*
X140548Y77680D01*
X141321Y78452D01*
X141867Y79398D01*
X142150Y80454D01*
Y81546D01*
X141867Y82602D01*
X141321Y83548D01*
X140548Y84320D01*
X139602Y84867D01*
X138546Y85150D01*
D02*
G37*
G36*
X108546D02*
X107454D01*
X106398Y84867D01*
X105452Y84320D01*
X104680Y83548D01*
X104133Y82602D01*
X103850Y81546D01*
Y80454D01*
X104133Y79398D01*
X104680Y78452D01*
X105452Y77680D01*
X106398Y77133D01*
X107454Y76850D01*
X108546D01*
X109602Y77133D01*
X110548Y77680D01*
X111320Y78452D01*
X111867Y79398D01*
X112150Y80454D01*
Y81546D01*
X111867Y82602D01*
X111320Y83548D01*
X110548Y84320D01*
X109602Y84867D01*
X108546Y85150D01*
D02*
G37*
G36*
X98546D02*
X97454D01*
X96398Y84867D01*
X95452Y84320D01*
X94679Y83548D01*
X94133Y82602D01*
X93850Y81546D01*
Y80454D01*
X94133Y79398D01*
X94679Y78452D01*
X95452Y77680D01*
X96398Y77133D01*
X97454Y76850D01*
X98546D01*
X99602Y77133D01*
X100548Y77680D01*
X101321Y78452D01*
X101867Y79398D01*
X102150Y80454D01*
Y81546D01*
X101867Y82602D01*
X101321Y83548D01*
X100548Y84320D01*
X99602Y84867D01*
X98546Y85150D01*
D02*
G37*
G36*
X88546D02*
X87454D01*
X86398Y84867D01*
X85452Y84320D01*
X84680Y83548D01*
X84133Y82602D01*
X83850Y81546D01*
Y80454D01*
X84133Y79398D01*
X84680Y78452D01*
X85452Y77680D01*
X86398Y77133D01*
X87454Y76850D01*
X88546D01*
X89602Y77133D01*
X90548Y77680D01*
X91321Y78452D01*
X91867Y79398D01*
X92150Y80454D01*
Y81546D01*
X91867Y82602D01*
X91321Y83548D01*
X90548Y84320D01*
X89602Y84867D01*
X88546Y85150D01*
D02*
G37*
G36*
X78546D02*
X77454D01*
X76398Y84867D01*
X75452Y84320D01*
X74679Y83548D01*
X74133Y82602D01*
X73850Y81546D01*
Y80454D01*
X74133Y79398D01*
X74679Y78452D01*
X75452Y77680D01*
X76398Y77133D01*
X77454Y76850D01*
X78546D01*
X79602Y77133D01*
X80548Y77680D01*
X81321Y78452D01*
X81867Y79398D01*
X82150Y80454D01*
Y81546D01*
X81867Y82602D01*
X81321Y83548D01*
X80548Y84320D01*
X79602Y84867D01*
X78546Y85150D01*
D02*
G37*
G36*
X72150D02*
X63850D01*
Y76850D01*
X72150D01*
Y85150D01*
D02*
G37*
G36*
X51650Y65150D02*
X43350D01*
Y56850D01*
X51650D01*
Y65150D01*
D02*
G37*
G36*
X349461Y56500D02*
X348539D01*
X347649Y56261D01*
X346851Y55801D01*
X346199Y55149D01*
X345739Y54351D01*
X345500Y53461D01*
Y52539D01*
X345739Y51649D01*
X346199Y50851D01*
X346851Y50199D01*
X347649Y49738D01*
X348539Y49500D01*
X349461D01*
X350351Y49738D01*
X350675Y49926D01*
X371024Y39951D01*
X371238Y39149D01*
X371699Y38351D01*
X372351Y37699D01*
X373149Y37238D01*
X374039Y37000D01*
X374961D01*
X375851Y37238D01*
X376649Y37699D01*
X377301Y38351D01*
X377762Y39149D01*
X378000Y40039D01*
Y40961D01*
X377762Y41851D01*
X377301Y42649D01*
X376649Y43301D01*
X375851Y43762D01*
X374961Y44000D01*
X374039D01*
X373149Y43762D01*
X372825Y43574D01*
X352476Y53549D01*
X352261Y54351D01*
X351801Y55149D01*
X351149Y55801D01*
X350351Y56261D01*
X349461Y56500D01*
D02*
G37*
G36*
X160461Y32500D02*
X159539D01*
X158649Y32261D01*
X158186Y31994D01*
X149314D01*
X148851Y32261D01*
X147961Y32500D01*
X147039D01*
X146149Y32261D01*
X145351Y31801D01*
X144699Y31149D01*
X144238Y30351D01*
X144000Y29461D01*
Y28539D01*
X144238Y27649D01*
X144699Y26851D01*
X145351Y26199D01*
X146149Y25738D01*
X147039Y25500D01*
X147961D01*
X148851Y25738D01*
X149314Y26006D01*
X158186D01*
X158649Y25738D01*
X159539Y25500D01*
X160461D01*
X161351Y25738D01*
X162149Y26199D01*
X162801Y26851D01*
X163261Y27649D01*
X163500Y28539D01*
Y29461D01*
X163261Y30351D01*
X162801Y31149D01*
X162149Y31801D01*
X161351Y32261D01*
X160461Y32500D01*
D02*
G37*
G36*
X289933Y15697D02*
X282815D01*
Y8579D01*
X289933D01*
Y15697D01*
D02*
G37*
G36*
X278969D02*
X278031D01*
X277126Y15454D01*
X276315Y14986D01*
X275652Y14323D01*
X275184Y13511D01*
X274941Y12606D01*
Y11669D01*
X275184Y10764D01*
X275652Y9952D01*
X276315Y9290D01*
X277126Y8821D01*
X278031Y8579D01*
X278969D01*
X279874Y8821D01*
X280685Y9290D01*
X281348Y9952D01*
X281817Y10764D01*
X282059Y11669D01*
Y12606D01*
X281817Y13511D01*
X281348Y14323D01*
X280685Y14986D01*
X279874Y15454D01*
X278969Y15697D01*
D02*
G37*
G36*
X157059Y15559D02*
X149941D01*
Y8441D01*
X157059D01*
Y15559D01*
D02*
G37*
G36*
X146095D02*
X145157D01*
X144252Y15316D01*
X143441Y14848D01*
X142778Y14185D01*
X142309Y13374D01*
X142067Y12469D01*
Y11531D01*
X142309Y10626D01*
X142778Y9815D01*
X143441Y9152D01*
X144252Y8683D01*
X145157Y8441D01*
X146095D01*
X147000Y8683D01*
X147811Y9152D01*
X148474Y9815D01*
X148942Y10626D01*
X149185Y11531D01*
Y12469D01*
X148942Y13374D01*
X148474Y14185D01*
X147811Y14848D01*
X147000Y15316D01*
X146095Y15559D01*
D02*
G37*
%LPD*%
D14*
X177043Y126000D02*
X180843Y122200D01*
X176943Y126000D02*
X177043D01*
X157500Y170000D02*
Y185000D01*
X158000Y185500D01*
X153843Y197500D02*
X165343Y186000D01*
X148843Y197500D02*
X153843D01*
X145554Y192554D02*
Y194211D01*
X148843Y197500D01*
X141500Y188500D02*
X145554Y192554D01*
X128000Y142500D02*
X134500Y149000D01*
X128000Y91000D02*
Y142500D01*
X180843Y122200D02*
X287200D01*
X296500Y131500D01*
X52000Y237000D02*
X52100Y236900D01*
Y233000D02*
Y236900D01*
Y233000D02*
X111900Y173200D01*
X148500Y73000D02*
Y149000D01*
Y73000D02*
X153500Y68000D01*
X157500Y170000D02*
X201300Y126200D01*
X208600D01*
X165343Y186000D02*
X166000D01*
X110223Y158623D02*
X119600Y168000D01*
Y186000D01*
X337500Y133000D02*
Y157200D01*
Y133000D02*
X342200Y128300D01*
Y84000D02*
Y128300D01*
X334500Y76300D02*
X342200Y84000D01*
X292700Y76300D02*
X334500D01*
X288000Y81000D02*
X292700Y76300D01*
X175600Y168300D02*
X191100D01*
X209300Y186500D01*
X181300Y162800D02*
X198700D01*
X205300Y169400D01*
D64*
X145626Y12000D02*
D03*
X270626Y12138D02*
D03*
X278500D02*
D03*
D65*
X153500Y12000D02*
D03*
X286374Y12138D02*
D03*
D68*
X150500Y172095D02*
Y193500D01*
Y172095D02*
X154797Y167798D01*
Y161703D02*
X155000Y161500D01*
X154797Y161703D02*
Y167798D01*
X147500Y29000D02*
X160000D01*
D69*
X349000Y53000D02*
X374500Y40500D01*
D70*
X377000Y157500D02*
D03*
D71*
Y137500D02*
D03*
D72*
X68000Y81000D02*
D03*
X158000D02*
D03*
X32000Y261000D02*
D03*
X138000D02*
D03*
X47500Y61000D02*
D03*
D73*
X78000Y81000D02*
D03*
X88000D02*
D03*
X98000D02*
D03*
X108000D02*
D03*
X118000D02*
D03*
X128000D02*
D03*
X138000D02*
D03*
X68000Y91000D02*
D03*
X78000D02*
D03*
X88000D02*
D03*
X98000D02*
D03*
X108000D02*
D03*
X118000D02*
D03*
X128000D02*
D03*
X138000D02*
D03*
X248000D02*
D03*
X298000D02*
D03*
X288000Y81000D02*
D03*
X298000D02*
D03*
X288000Y91000D02*
D03*
X278000D02*
D03*
X268000D02*
D03*
X258000D02*
D03*
X238000D02*
D03*
X228000D02*
D03*
X218000D02*
D03*
X208000D02*
D03*
X198000D02*
D03*
X188000D02*
D03*
X178000D02*
D03*
X168000D02*
D03*
X158000D02*
D03*
X278000Y81000D02*
D03*
X268000D02*
D03*
X258000D02*
D03*
X248000D02*
D03*
X238000D02*
D03*
X228000D02*
D03*
X218000D02*
D03*
X208000D02*
D03*
X198000D02*
D03*
X188000D02*
D03*
X178000D02*
D03*
X168000D02*
D03*
X122000Y271000D02*
D03*
X112000D02*
D03*
X102000D02*
D03*
X92000D02*
D03*
X82000D02*
D03*
X72000D02*
D03*
X62000D02*
D03*
X52000D02*
D03*
X42000D02*
D03*
X122000Y261000D02*
D03*
X112000D02*
D03*
X102000D02*
D03*
X92000D02*
D03*
X82000D02*
D03*
X72000D02*
D03*
X62000D02*
D03*
X52000D02*
D03*
X42000D02*
D03*
X32000Y271000D02*
D03*
X298000D02*
D03*
X288000D02*
D03*
X278000D02*
D03*
X268000D02*
D03*
X258000D02*
D03*
X248000D02*
D03*
X238000D02*
D03*
X228000D02*
D03*
X218000D02*
D03*
X208000D02*
D03*
X198000D02*
D03*
X188000D02*
D03*
X178000D02*
D03*
X168000D02*
D03*
X158000D02*
D03*
X148000D02*
D03*
X138000D02*
D03*
X298000Y261000D02*
D03*
X288000D02*
D03*
X278000D02*
D03*
X268000D02*
D03*
X258000D02*
D03*
X248000D02*
D03*
X238000D02*
D03*
X228000D02*
D03*
X218000D02*
D03*
X208000D02*
D03*
X198000D02*
D03*
X188000D02*
D03*
X178000D02*
D03*
X168000D02*
D03*
X158000D02*
D03*
X148000D02*
D03*
X57500Y61000D02*
D03*
D74*
X55500Y130000D02*
D03*
D75*
X15500D02*
D03*
X55500Y170000D02*
D03*
X15500D02*
D03*
D76*
X10000Y243343D02*
D03*
Y233500D02*
D03*
Y223657D02*
D03*
D77*
Y213815D02*
D03*
D78*
X374500Y40500D02*
D03*
X349000Y53000D02*
D03*
X176943Y126000D02*
D03*
X158000Y185500D02*
D03*
X150500Y193500D02*
D03*
X157000Y104000D02*
D03*
Y111000D02*
D03*
X134500Y149000D02*
D03*
X296500Y131500D02*
D03*
X277500Y159500D02*
D03*
X52000Y237000D02*
D03*
X155000Y161500D02*
D03*
X148500Y149000D02*
D03*
X166000Y186000D02*
D03*
X153500Y68000D02*
D03*
X160000Y29000D02*
D03*
X147500D02*
D03*
X365000Y89000D02*
D03*
X374000Y25500D02*
D03*
X389000D02*
D03*
X381500D02*
D03*
X389000Y6500D02*
D03*
X381500D02*
D03*
X374000D02*
D03*
X389000Y13000D02*
D03*
X381500D02*
D03*
X374000D02*
D03*
X389000Y19000D02*
D03*
X381500D02*
D03*
X374000D02*
D03*
X353500Y135000D02*
D03*
Y141500D02*
D03*
X360000Y135000D02*
D03*
Y141500D02*
D03*
X367000Y135000D02*
D03*
Y141500D02*
D03*
X331500Y126000D02*
D03*
X325000D02*
D03*
X321500Y165500D02*
D03*
X315500Y168000D02*
D03*
X141500Y188500D02*
D03*
X111900Y173200D02*
D03*
X208600Y126200D02*
D03*
X110223Y158623D02*
D03*
X119600Y186000D02*
D03*
X337500Y157200D02*
D03*
X175600Y168300D02*
D03*
X209300Y186500D02*
D03*
X181300Y162800D02*
D03*
X205300Y169400D02*
D03*
D79*
X157000Y104000D02*
Y159500D01*
X155000Y161500D02*
X157000Y159500D01*
M02*
